<?xml version="1.0" encoding="UTF-8" standalone="no"?>
<!-- Created with Inkscape (http://www.inkscape.org/) -->

<svg
   xmlns:dc="http://purl.org/dc/elements/1.1/"
   xmlns:cc="http://creativecommons.org/ns#"
   xmlns:rdf="http://www.w3.org/1999/02/22-rdf-syntax-ns#"
   xmlns:svg="http://www.w3.org/2000/svg"
   xmlns="http://www.w3.org/2000/svg"
   version="1.1"
   width="531.49603"
   height="531.49603"
   viewBox="0 0 531.49603 531.49602"
   id="Layer_1"
   xml:space="preserve"><metadata
   id="metadata85"><rdf:RDF><cc:Work
       rdf:about=""><dc:format>image/svg+xml</dc:format><dc:type
         rdf:resource="http://purl.org/dc/dcmitype/StillImage" /><dc:title></dc:title></cc:Work></rdf:RDF></metadata><defs
   id="defs83" />
<circle
   cx="253.625"
   cy="253.625"
   r="251.125"
   transform="translate(13.552481,10.69354)"
   id="circle3"
   style="fill:#fffb25" />
<circle
   cx="253.625"
   cy="253.625"
   r="174.125"
   transform="translate(13.552481,10.69354)"
   id="circle5"
   style="fill:#184ec6" />
<circle
   cx="253.625"
   cy="253.625"
   r="72.125"
   transform="translate(13.552481,10.69354)"
   id="circle7"
   style="fill:none;stroke:#000000;stroke-width:5" />
<circle
   cx="253.625"
   cy="253.625"
   r="124.125"
   transform="translate(13.552481,10.69354)"
   id="circle9"
   style="fill:none;stroke:#000000;stroke-width:5" />
<circle
   cx="253.625"
   cy="253.625"
   r="174.125"
   transform="translate(13.552481,10.69354)"
   id="circle11"
   style="fill:none;stroke:#000000;stroke-width:5" />
<circle
   cx="253.625"
   cy="253.625"
   r="251.125"
   transform="translate(13.552481,10.69354)"
   id="circle13"
   style="fill:none;stroke:#000000;stroke-width:5" />
<g
   transform="translate(13.552481,10.69354)"
   id="g15">
	<path
   d="m 140.787,48.937 14.671,-7.011 c 1.485,-0.709 2.901,-1.226 4.249,-1.548 1.348,-0.322 2.601,-0.393 3.759,-0.214 1.159,0.18 2.215,0.649 3.167,1.409 0.954,0.76 1.778,1.868 2.473,3.324 0.751,1.572 1.021,3.052 0.808,4.441 -0.213,1.389 -0.857,2.751 -1.934,4.089 2.17,-0.358 4.056,-0.07 5.655,0.864 1.6,0.935 2.866,2.377 3.797,4.327 0.751,1.572 1.096,3.079 1.035,4.52 -0.061,1.442 -0.433,2.773 -1.117,3.993 -0.684,1.221 -1.604,2.322 -2.759,3.303 -1.155,0.981 -2.431,1.805 -3.825,2.472 l -15.083,7.207 -14.896,-31.176 z m 19.811,6.033 c 1.227,-0.586 2.096,-1.359 2.607,-2.319 0.511,-0.958 0.454,-2.094 -0.172,-3.404 -0.348,-0.727 -0.765,-1.261 -1.25,-1.601 -0.485,-0.34 -1.01,-0.537 -1.574,-0.589 -0.563,-0.053 -1.154,0.006 -1.772,0.176 -0.619,0.171 -1.235,0.402 -1.848,0.696 l -6.444,3.079 3.484,7.292 6.969,-3.33 z m 6.714,13.042 c 0.671,-0.321 1.283,-0.693 1.834,-1.118 0.551,-0.424 0.987,-0.9 1.308,-1.43 0.321,-0.529 0.496,-1.122 0.523,-1.778 0.026,-0.656 -0.154,-1.392 -0.544,-2.208 -0.765,-1.601 -1.764,-2.527 -2.996,-2.778 -1.232,-0.25 -2.594,-0.021 -4.083,0.691 l -7.493,3.581 4.09,8.558 7.361,-3.518 z"
   id="path17" />
	<path
   d="m 201.82,62.508 c -2.585,0.699 -5.009,0.878 -7.273,0.539 -2.265,-0.34 -4.308,-1.099 -6.13,-2.278 -1.822,-1.178 -3.392,-2.717 -4.708,-4.618 -1.316,-1.9 -2.302,-4.064 -2.959,-6.494 -0.665,-2.46 -0.915,-4.866 -0.749,-7.217 0.167,-2.351 0.736,-4.51 1.708,-6.478 0.972,-1.967 2.348,-3.676 4.128,-5.127 1.78,-1.45 3.962,-2.525 6.547,-3.224 2.553,-0.69 4.973,-0.859 7.257,-0.508 2.284,0.352 4.341,1.132 6.172,2.341 1.831,1.209 3.411,2.788 4.739,4.734 1.328,1.946 2.326,4.151 2.991,6.61 0.657,2.429 0.896,4.796 0.717,7.101 -0.179,2.304 -0.759,4.424 -1.739,6.36 -0.98,1.937 -2.371,3.624 -4.17,5.063 -1.8,1.441 -3.977,2.506 -6.531,3.196 z m -1.654,-6.119 c 1.658,-0.448 2.981,-1.147 3.967,-2.098 0.986,-0.951 1.697,-2.051 2.131,-3.303 0.434,-1.251 0.637,-2.582 0.608,-3.992 -0.029,-1.41 -0.231,-2.814 -0.609,-4.212 -0.395,-1.46 -0.942,-2.83 -1.641,-4.109 -0.698,-1.279 -1.553,-2.357 -2.562,-3.234 -1.01,-0.877 -2.18,-1.478 -3.511,-1.802 -1.331,-0.324 -2.826,-0.262 -4.484,0.187 -1.659,0.448 -2.982,1.148 -3.968,2.099 -0.986,0.951 -1.694,2.06 -2.125,3.326 -0.43,1.267 -0.625,2.628 -0.583,4.085 0.042,1.457 0.26,2.915 0.655,4.375 0.378,1.398 0.91,2.714 1.595,3.946 0.686,1.232 1.532,2.279 2.538,3.141 1.006,0.862 2.174,1.455 3.504,1.779 1.33,0.324 2.826,0.26 4.485,-0.188 z"
   id="path19" />
	<path
   d="m 220.562,22.2 7.526,-0.589 1.869,23.881 0.145,-0.011 11.253,-24.908 8.491,-0.665 2.696,34.447 -7.526,0.589 -1.873,-23.93 -0.145,0.011 -11.25,24.957 -8.491,0.665 -2.695,-34.447 z m 14.87,-4.125 c -2.348,0.184 -4.293,-0.278 -5.836,-1.388 -1.543,-1.109 -2.413,-2.918 -2.609,-5.426 l 2.702,-0.212 c 0.313,1.109 0.958,1.916 1.937,2.421 0.978,0.506 2.143,0.706 3.494,0.6 1.351,-0.105 2.469,-0.484 3.357,-1.136 0.887,-0.652 1.399,-1.549 1.537,-2.693 l 2.702,-0.212 c 0.196,2.509 -0.381,4.431 -1.733,5.767 -1.353,1.336 -3.204,2.095 -5.551,2.279 z"
   id="path21" />
	<path
   d="m 274.553,56.753 c -2.665,-0.269 -4.993,-0.965 -6.985,-2.09 -1.992,-1.125 -3.625,-2.562 -4.898,-4.312 -1.274,-1.749 -2.185,-3.746 -2.731,-5.99 -0.548,-2.244 -0.694,-4.617 -0.442,-7.121 0.256,-2.535 0.877,-4.873 1.866,-7.01 0.988,-2.138 2.283,-3.953 3.884,-5.445 1.6,-1.493 3.489,-2.599 5.668,-3.32 2.178,-0.721 4.599,-0.947 7.264,-0.679 1.861,0.188 3.614,0.642 5.261,1.363 1.646,0.722 3.082,1.675 4.309,2.86 1.226,1.186 2.194,2.595 2.905,4.227 0.711,1.632 1.079,3.455 1.104,5.467 l -7.319,-0.737 c -0.041,-0.88 -0.25,-1.703 -0.626,-2.471 -0.377,-0.768 -0.875,-1.458 -1.494,-2.072 -0.619,-0.613 -1.339,-1.115 -2.158,-1.506 -0.82,-0.391 -1.695,-0.633 -2.626,-0.727 -1.702,-0.171 -3.18,0.012 -4.433,0.549 -1.254,0.537 -2.306,1.321 -3.155,2.351 -0.851,1.031 -1.514,2.234 -1.993,3.61 -0.479,1.375 -0.795,2.816 -0.946,4.321 -0.146,1.441 -0.118,2.86 0.082,4.255 0.2,1.396 0.613,2.675 1.243,3.838 0.628,1.164 1.503,2.134 2.625,2.91 1.121,0.776 2.532,1.25 4.233,1.421 2.312,0.233 4.188,-0.291 5.631,-1.573 1.442,-1.281 2.424,-3.063 2.946,-5.345 l 7.318,0.737 c -0.413,2.164 -1.107,4.064 -2.082,5.7 -0.976,1.637 -2.184,2.999 -3.622,4.085 -1.439,1.088 -3.074,1.863 -4.903,2.327 -1.833,0.465 -3.808,0.59 -5.926,0.377 z"
   id="path23" />
	<path
   d="m 304.451,25.455 7.257,2.081 -3.948,13.77 16.927,-10.048 9.117,2.614 -16.739,9.396 8.472,24.178 -9.164,-2.628 -5.72,-17.8 -5.4,3.033 -3.067,10.699 -7.257,-2.081 9.522,-33.214 z"
   id="path25" />
	<path
   d="m 351.925,41.969 7.01,3.4 -3.456,36.727 -7.098,-3.443 1.008,-8.063 -11.625,-5.64 -5.797,5.74 -6.88,-3.337 26.838,-25.384 z m -1.851,22.661 1.616,-13.309 -0.087,-0.042 -9.584,9.443 8.055,3.908 z"
   id="path27" />
</g>
<g
   transform="translate(13.552481,10.69354)"
   id="g29">
	<path
   d="m 34.118,321.152 c -0.653,-2.139 -0.921,-3.976 -0.805,-5.509 0.116,-1.535 0.66,-2.87 1.632,-4.006 0.972,-1.136 2.373,-2.141 4.205,-3.015 1.831,-0.873 4.131,-1.733 6.901,-2.578 2.797,-0.854 5.22,-1.407 7.272,-1.658 2.051,-0.252 3.805,-0.15 5.263,0.304 1.457,0.454 2.658,1.271 3.603,2.452 0.945,1.18 1.719,2.757 2.321,4.73 0.527,1.728 0.755,3.262 0.686,4.602 -0.071,1.341 -0.396,2.511 -0.974,3.512 -0.579,1.001 -1.385,1.847 -2.417,2.537 -1.034,0.689 -2.263,1.253 -3.688,1.688 l -1.851,0.565 -2.26,-7.402 1.645,-0.503 c 1.672,-0.51 2.76,-1.022 3.263,-1.535 0.502,-0.514 0.641,-1.14 0.415,-1.881 -0.176,-0.575 -0.467,-0.988 -0.873,-1.239 -0.407,-0.251 -1.021,-0.348 -1.843,-0.292 -0.822,0.057 -1.893,0.256 -3.211,0.599 -1.319,0.343 -2.966,0.815 -4.94,1.418 -1.974,0.603 -3.604,1.13 -4.889,1.583 -1.286,0.452 -2.286,0.885 -2.999,1.298 -0.713,0.412 -1.168,0.836 -1.365,1.271 -0.197,0.435 -0.208,0.94 -0.032,1.516 0.142,0.467 0.375,0.814 0.701,1.045 0.325,0.23 0.787,0.345 1.385,0.342 0.598,-0.003 1.367,-0.11 2.307,-0.322 0.939,-0.212 2.108,-0.531 3.506,-0.958 l 2.26,7.402 -2.18,0.666 c -2.084,0.636 -3.861,0.878 -5.33,0.728 -1.47,-0.151 -2.713,-0.565 -3.729,-1.244 -1.016,-0.679 -1.84,-1.559 -2.47,-2.641 -0.63,-1.082 -1.132,-2.241 -1.509,-3.475 z"
   id="path31" />
	<path
   d="m 67.748,324.023 8.431,19.122 -28.092,12.387 -3.227,-7.318 22.112,-9.75 -1.978,-4.485 -22.112,9.75 -3.227,-7.318 28.093,-12.388 z"
   id="path33" />
	<path
   d="m 77.837,346.185 9.201,15.69 -5.638,3.306 -5.155,-8.791 -4.525,2.653 4.829,8.235 -5.416,3.175 -4.829,-8.234 -5.268,3.089 5.351,9.125 -5.638,3.306 -9.396,-16.024 26.484,-15.53 z"
   id="path35" />
	<path
   d="m 73.919,395.88 -9.824,-13.003 24.497,-18.507 4.821,6.382 -19.282,14.566 2.955,3.911 19.282,-14.566 4.821,6.382 -19.282,14.566 1.633,2.162 -9.916,7.49 -4.406,-5.832 4.701,-3.551 z"
   id="path37" />
	<path
   d="m 103.845,384.228 5.37,5.514 -12.354,12.029 15.954,-8.332 6.24,6.408 -21.997,21.419 -5.37,-5.515 13.124,-12.779 -16.784,9.021 -6.18,-6.347 21.997,-21.418 z"
   id="path39" />
	<path
   d="m 125.423,405.16 7.84,6.308 -13.417,28.61 -6.633,-5.337 2.733,-4.7 -4.958,-3.989 -4.006,3.676 -6.533,-5.257 24.974,-19.311 z m -6.441,19.598 6.459,-11.526 -0.067,-0.054 -9.876,8.776 3.484,2.804 z"
   id="path41" />
	<path
   d="m 124.819,443.693 c -0.195,-0.121 -0.417,-0.268 -0.665,-0.438 -0.248,-0.17 -0.505,-0.355 -0.77,-0.553 -0.265,-0.199 -0.524,-0.394 -0.777,-0.583 -0.253,-0.191 -0.45,-0.364 -0.59,-0.518 l 3.332,-5.372 c 0.106,0.101 0.241,0.209 0.405,0.327 0.162,0.118 0.305,0.214 0.427,0.29 0.438,0.272 0.848,0.468 1.23,0.586 0.382,0.119 0.823,0.047 1.324,-0.216 0.5,-0.264 1.092,-0.781 1.774,-1.556 0.682,-0.775 1.548,-1.898 2.598,-3.373 1.049,-1.475 2.318,-3.369 3.805,-5.686 1.487,-2.315 3.273,-5.154 5.359,-8.517 l 16.333,10.133 -16.184,26.09 -6.796,-4.216 12.829,-20.683 -3.143,-1.949 c -2.614,4.215 -4.835,7.619 -6.664,10.212 -1.829,2.594 -3.491,4.514 -4.99,5.76 -1.499,1.246 -2.932,1.858 -4.301,1.836 -1.369,-0.022 -2.879,-0.546 -4.536,-1.574 z"
   id="path43" />
	<path
   d="m 161.475,429.692 7.262,3.351 -4.611,9.996 2.85,1.314 c 3.176,1.465 5.128,3.306 5.859,5.521 0.73,2.216 0.458,4.703 -0.814,7.462 -0.817,1.771 -1.769,3.114 -2.855,4.034 -1.087,0.919 -2.226,1.522 -3.416,1.81 -1.191,0.288 -2.398,0.322 -3.624,0.104 -1.226,-0.218 -2.398,-0.586 -3.517,-1.102 l -9.996,-4.611 12.862,-27.879 z m -2.21,26.448 c 1.301,0.601 2.354,0.715 3.157,0.344 0.802,-0.371 1.504,-1.208 2.105,-2.51 0.672,-1.458 0.807,-2.588 0.403,-3.39 -0.404,-0.802 -1.152,-1.454 -2.245,-1.959 l -0.938,-0.433 -3.458,7.497 0.976,0.451 z"
   id="path45" />
	<path
   d="m 182.777,439.331 7.613,2.452 -3.454,10.724 4.666,1.503 3.454,-10.724 7.613,2.452 -9.413,29.224 -7.613,-2.452 3.876,-12.033 -4.666,-1.503 -3.876,12.033 -7.613,-2.452 9.413,-29.224 z"
   id="path47" />
	<path
   d="m 209.833,479.051 c -1.999,-0.387 -3.635,-0.987 -4.907,-1.802 -1.273,-0.815 -2.213,-1.924 -2.818,-3.325 -0.605,-1.401 -0.901,-3.123 -0.886,-5.164 0.014,-2.04 0.296,-4.482 0.845,-7.325 0.543,-2.814 1.19,-5.179 1.939,-7.093 0.749,-1.914 1.667,-3.415 2.753,-4.505 1.086,-1.089 2.375,-1.789 3.865,-2.1 1.49,-0.311 3.235,-0.273 5.233,0.112 1.999,0.387 3.631,1.001 4.899,1.845 1.267,0.843 2.203,1.973 2.805,3.388 0.603,1.416 0.895,3.151 0.878,5.206 -0.018,2.055 -0.298,4.49 -0.841,7.305 -0.549,2.843 -1.197,5.215 -1.943,7.113 -0.747,1.9 -1.661,3.388 -2.745,4.463 -1.084,1.076 -2.369,1.754 -3.853,2.037 -1.484,0.282 -3.226,0.231 -5.224,-0.155 z m 1.003,-5.194 c 0.591,0.114 1.092,0.051 1.504,-0.191 0.412,-0.241 0.785,-0.738 1.12,-1.491 0.335,-0.753 0.66,-1.792 0.975,-3.118 0.314,-1.326 0.667,-3.003 1.059,-5.029 0.392,-2.026 0.688,-3.714 0.89,-5.062 0.201,-1.348 0.287,-2.434 0.257,-3.257 -0.031,-0.823 -0.192,-1.424 -0.484,-1.802 -0.292,-0.377 -0.733,-0.623 -1.325,-0.737 -0.591,-0.114 -1.093,-0.051 -1.504,0.191 -0.412,0.241 -0.785,0.739 -1.12,1.491 -0.336,0.753 -0.66,1.793 -0.975,3.118 -0.315,1.326 -0.667,3.003 -1.059,5.029 -0.392,2.026 -0.688,3.714 -0.89,5.062 -0.202,1.348 -0.288,2.434 -0.257,3.257 0.031,0.823 0.192,1.424 0.484,1.802 0.292,0.378 0.734,0.623 1.325,0.737 z"
   id="path49" />
	<path
   d="m 229.428,450.732 17.184,1.427 -0.541,6.514 -9.213,-0.765 -2,24.083 -7.97,-0.662 2.54,-30.597 z"
   id="path51" />
	<path
   d="m 259.16,483.158 c -2.035,0.048 -3.761,-0.19 -5.178,-0.717 -1.418,-0.525 -2.571,-1.408 -3.461,-2.649 -0.89,-1.24 -1.545,-2.859 -1.964,-4.856 -0.42,-1.997 -0.664,-4.443 -0.733,-7.338 -0.067,-2.865 0.061,-5.313 0.386,-7.343 0.324,-2.029 0.902,-3.691 1.731,-4.987 0.83,-1.295 1.939,-2.254 3.33,-2.874 1.39,-0.621 3.103,-0.956 5.138,-1.004 2.035,-0.048 3.762,0.206 5.18,0.76 1.418,0.554 2.572,1.459 3.461,2.714 0.891,1.255 1.545,2.888 1.967,4.899 0.42,2.012 0.664,4.451 0.732,7.316 0.068,2.895 -0.061,5.35 -0.385,7.364 -0.326,2.015 -0.904,3.663 -1.734,4.944 -0.828,1.281 -1.939,2.218 -3.33,2.81 -1.394,0.593 -3.107,0.912 -5.14,0.961 z m -0.125,-5.288 c 0.602,-0.014 1.078,-0.183 1.428,-0.507 0.352,-0.323 0.609,-0.889 0.777,-1.695 0.168,-0.806 0.264,-1.892 0.289,-3.255 0.025,-1.362 0.014,-3.075 -0.035,-5.139 -0.049,-2.064 -0.119,-3.775 -0.209,-5.135 -0.09,-1.36 -0.236,-2.439 -0.441,-3.237 -0.205,-0.798 -0.49,-1.35 -0.856,-1.657 -0.366,-0.307 -0.849,-0.453 -1.451,-0.438 -0.602,0.014 -1.078,0.184 -1.429,0.507 -0.352,0.324 -0.61,0.89 -0.777,1.695 -0.167,0.808 -0.264,1.893 -0.289,3.255 -0.025,1.362 -0.013,3.075 0.036,5.139 0.049,2.064 0.118,3.775 0.208,5.135 0.089,1.36 0.236,2.439 0.442,3.237 0.205,0.798 0.491,1.351 0.856,1.657 0.365,0.307 0.849,0.453 1.451,0.438 z"
   id="path53" />
	<path
   d="m 284.155,449.997 7.83,-1.633 2.301,11.028 4.798,-1.001 -2.3,-11.029 7.829,-1.633 6.27,30.055 -7.829,1.634 -2.582,-12.376 -4.799,1.001 2.582,12.376 -7.829,1.633 -6.271,-30.055 z"
   id="path55" />
	<path
   d="m 312.543,443.229 9.531,-3.227 16.934,26.68 -8.064,2.731 -2.498,-4.829 -6.027,2.041 0.95,5.353 -7.942,2.689 -2.884,-31.438 z m 13.076,15.958 -6.256,-11.638 -0.082,0.027 2.102,13.044 4.236,-1.433 z"
   id="path57" />
	<path
   d="m 351.347,461.45 c -1.528,0.725 -2.939,1.212 -4.232,1.461 -1.294,0.249 -2.486,0.228 -3.577,-0.064 -1.09,-0.292 -2.087,-0.89 -2.992,-1.793 -0.904,-0.903 -1.726,-2.132 -2.463,-3.686 l -0.147,-0.311 6.954,-3.3 0.129,0.271 c 0.676,1.425 1.315,2.32 1.916,2.685 0.602,0.365 1.304,0.357 2.107,-0.023 0.413,-0.197 0.745,-0.418 0.994,-0.663 0.248,-0.244 0.399,-0.562 0.452,-0.952 0.054,-0.39 -10e-4,-0.871 -0.162,-1.445 -0.161,-0.574 -0.444,-1.289 -0.851,-2.144 -0.295,-0.621 -0.569,-1.134 -0.824,-1.536 -0.255,-0.402 -0.544,-0.678 -0.867,-0.826 -0.324,-0.147 -0.719,-0.175 -1.182,-0.082 -0.464,0.094 -1.059,0.312 -1.783,0.656 -0.259,0.122 -0.505,0.239 -0.738,0.35 -0.232,0.11 -0.524,0.266 -0.875,0.463 l -2.396,-5.05 c 0.219,-0.072 0.484,-0.183 0.795,-0.33 0.311,-0.147 0.53,-0.252 0.66,-0.313 0.674,-0.319 1.187,-0.626 1.539,-0.92 0.352,-0.294 0.561,-0.64 0.627,-1.036 0.065,-0.396 -0.002,-0.871 -0.201,-1.427 -0.2,-0.556 -0.497,-1.248 -0.891,-2.077 -0.491,-1.035 -1.008,-1.655 -1.548,-1.859 -0.541,-0.202 -1.122,-0.157 -1.744,0.138 -0.44,0.209 -0.747,0.481 -0.921,0.817 -0.173,0.337 -0.258,0.71 -0.254,1.12 0.005,0.411 0.082,0.842 0.233,1.294 0.15,0.452 0.331,0.897 0.54,1.338 l -6.838,3.244 -0.092,-0.194 c -1.327,-2.797 -1.575,-5.226 -0.744,-7.286 0.831,-2.06 2.813,-3.833 5.947,-5.32 3.082,-1.462 5.634,-1.919 7.654,-1.371 2.021,0.549 3.646,2.117 4.875,4.707 0.32,0.674 0.553,1.364 0.698,2.072 0.146,0.709 0.173,1.418 0.081,2.127 -0.092,0.71 -0.313,1.396 -0.667,2.055 -0.354,0.659 -0.876,1.265 -1.567,1.813 1.909,-0.524 3.504,-0.44 4.784,0.253 1.281,0.693 2.383,2.011 3.304,3.953 0.737,1.555 1.138,2.983 1.2,4.285 0.063,1.304 -0.17,2.501 -0.699,3.593 -0.528,1.092 -1.324,2.072 -2.388,2.941 -1.064,0.869 -2.344,1.659 -3.846,2.372 z"
   id="path59" />
	<path
   d="m 350.126,427.364 6.772,-4.254 5.991,9.541 4.151,-2.606 -5.99,-9.541 6.773,-4.253 16.326,26.001 -6.773,4.253 -6.723,-10.706 -4.151,2.606 6.723,10.707 -6.773,4.253 -16.326,-26.001 z"
   id="path61" />
	<path
   d="m 374.418,411.139 7.822,-6.329 25.128,19.162 -6.618,5.355 -4.017,-3.665 -4.947,4.003 2.746,4.692 -6.519,5.274 -13.595,-28.492 z m 17.794,10.438 -9.9,-8.749 -0.066,0.054 6.49,11.509 3.476,-2.814 z"
   id="path63" />
	<path
   d="m 410.966,404.264 c -0.14,0.185 -0.314,0.414 -0.523,0.69 -0.21,0.276 -0.438,0.563 -0.688,0.86 -0.25,0.297 -0.5,0.584 -0.75,0.86 -0.25,0.277 -0.465,0.508 -0.646,0.692 -2.122,2.175 -4.182,3.239 -6.179,3.192 -1.998,-0.046 -4.104,-1.15 -6.32,-3.312 l -7.633,-7.447 5.525,-5.663 7.387,7.207 c 0.513,0.501 0.983,0.84 1.411,1.017 0.428,0.177 0.813,0.244 1.158,0.198 0.344,-0.044 0.657,-0.159 0.938,-0.346 0.281,-0.186 0.532,-0.392 0.753,-0.617 0.199,-0.205 0.435,-0.477 0.704,-0.814 0.269,-0.337 0.444,-0.588 0.522,-0.752 l -9.54,-9.309 5.585,-5.725 21.975,21.44 -5.585,5.725 -8.094,-7.896 z"
   id="path65" />
	<path
   d="m 404.946,382.284 11.164,-14.359 5.16,4.012 -6.255,8.045 4.142,3.22 5.859,-7.536 4.956,3.854 -5.858,7.536 4.82,3.748 6.492,-8.352 5.16,4.012 -11.401,14.665 -24.239,-18.845 z"
   id="path67" />
	<path
   d="m 417.873,365.483 4.155,-6.834 9.626,5.854 2.547,-4.188 -9.626,-5.854 4.156,-6.834 26.232,15.952 -4.156,6.834 -10.802,-6.568 -2.547,4.188 10.802,6.568 -4.155,6.834 -26.232,-15.952 z"
   id="path69" />
	<path
   d="m 430.244,344.817 3.155,-7.021 15.728,7.069 -13.612,-11.775 3.667,-8.158 28.003,12.587 -3.155,7.021 -16.708,-7.51 14.558,12.295 -3.632,8.079 -28.004,-12.587 z"
   id="path71" />
	<path
   d="m 458.606,323.889 c -1.126,1.123 -2.473,1.841 -4.039,2.151 -1.565,0.312 -3.335,0.163 -5.308,-0.445 -1.89,-0.583 -3.344,-1.339 -4.362,-2.269 -1.019,-0.929 -1.729,-1.958 -2.13,-3.087 -0.401,-1.129 -0.555,-2.309 -0.46,-3.54 0.095,-1.23 0.323,-2.435 0.688,-3.612 l 3.258,-10.561 29.338,9.054 -2.358,7.642 -10.889,-3.359 -0.368,1.191 9.558,7.674 -2.562,8.3 -10.366,-9.139 z m -1.651,-9.959 -7.438,-2.295 -0.532,1.726 c -0.397,1.287 -0.372,2.277 0.073,2.97 0.446,0.693 1.327,1.242 2.642,1.647 1.452,0.448 2.52,0.44 3.203,-0.023 0.683,-0.465 1.193,-1.244 1.532,-2.34 l 0.52,-1.685 z"
   id="path73" />
</g>
<line
   x1="441.68948"
   y1="264.31857"
   x2="92.665482"
   y2="264.31857"
   id="line75"
   style="fill:none;stroke:#000000;stroke-width:5" />
<line
   x1="267.17749"
   y1="438.83054"
   x2="267.17749"
   y2="89.80648"
   id="line77"
   style="fill:none;stroke:#000000;stroke-width:5" />
<path
   d="m 379.20948,87.712539 c -45.125,64.042001 -80.15,62.469001 -100.558,4.729 -2.887,13.274001 -6.28,16.160001 -11.475,16.160001 -5.194,0 -8.588,-2.886 -11.474,-16.160001 -20.408,57.740001 -55.434,59.313001 -100.558,-4.729 C 96.782481,124.81254 58.052481,190.03954 58.052481,264.31854 c 0,13.294 1.255,26.292 3.626,38.897 10.307,-8.024 21.876,-20.518 26.656,-33.018 7.745,-20.257 31.742999,-47.325 60.021999,-20.777 43.029,-60.917 88.811,-23.662 118.821,69.256 30.012,-92.918 75.793,-130.173 118.823,-69.256 28.279,-26.548 52.275,0.521 60.021,20.777 4.779,12.5 16.349,24.993 26.655,33.017 2.371,-12.604 3.626,-25.603 3.626,-38.896 0,-74.279 -38.729,-139.506 -97.093,-176.606001 z"
   id="path79" />
</svg>