<?xml version="1.0" encoding="utf-8"?>
<!-- Generator: Adobe Illustrator 24.0.0, SVG Export Plug-In . SVG Version: 6.00 Build 0)  -->
<svg version="1.1"
	 id="svg5" xmlns:inkscape="http://www.inkscape.org/namespaces/inkscape" xmlns:sodipodi="http://sodipodi.sourceforge.net/DTD/sodipodi-0.dtd" xmlns:svg="http://www.w3.org/2000/svg"
	 xmlns="http://www.w3.org/2000/svg" xmlns:xlink="http://www.w3.org/1999/xlink" x="0px" y="0px" viewBox="0 0 204.9 206"
	 style="enable-background:new 0 0 204.9 206;" xml:space="preserve">
<style type="text/css">
	.st0{display:none;}
	.st1{display:inline;}
	.st2{clip-path:url(#SVGID_2_);}
	.st3{fill:none;stroke:#2E2E2E;stroke-width:0.2631;stroke-miterlimit:2.6312;}
	.st4{fill:#2E2E2E;}
	.st5{clip-path:url(#SVGID_4_);}
	.st6{fill:#737373;}
	.st7{clip-path:url(#SVGID_6_);}
	.st8{fill:none;stroke:#737373;stroke-width:0.2631;stroke-miterlimit:2.6312;}
	.st9{clip-path:url(#SVGID_8_);}
	.st10{fill:none;stroke:#2E2E2E;stroke-width:0.2641;stroke-miterlimit:2.6414;}
	.st11{clip-path:url(#SVGID_10_);}
	.st12{clip-path:url(#SVGID_12_);}
	.st13{fill:none;stroke:#737373;stroke-width:0.2641;stroke-miterlimit:2.6414;}
	.st14{fill:#FFFFFF;}
</style>
<sodipodi:namedview  bordercolor="#666666" borderopacity="1.0" id="namedview7" inkscape:current-layer="g19" inkscape:cx="312.25647" inkscape:cy="272.16648" inkscape:document-units="mm" inkscape:pagecheckerboard="0" inkscape:pageopacity="0.0" inkscape:pageshadow="2" inkscape:window-height="1006" inkscape:window-maximized="1" inkscape:window-width="1920" inkscape:window-x="0" inkscape:window-y="0" inkscape:zoom="1.1224747" pagecolor="#ffffff" showgrid="false" width="209mm">
	</sodipodi:namedview>
<g id="layer1" inkscape:groupmode="layer" inkscape:label="Р В Р Р‹Р В Р’В»Р В РЎвЂўР В РІвЂћвЂ“ 1" class="st0">
	<g id="g15" transform="matrix(0.45278077,0,0,-0.45278077,-3.6995387,120.0315)" inkscape:label="LOGO" class="st1">
		<g id="g17">
			<g>
				<g>
					<g>
						<defs>
							<rect id="SVGID_1_" x="174.4" y="-155.2" width="93.6" height="47.4"/>
						</defs>
						<clipPath id="SVGID_2_">
							<use xlink:href="#SVGID_1_"  style="overflow:visible;"/>
						</clipPath>
						<g id="g19" class="st2">
							<g id="g25" transform="translate(316.7763,52.648)">
								<path id="path27" class="st3" d="M298.2-290h-405.1c-6.4,0-11.6,5.2-11.6,11.6v35.7c0,6.4,5.2,11.6,11.6,11.6h405.1
									c6.4,0,11.6-5.2,11.6-11.6v-35.7C309.8-284.8,304.6-290,298.2-290z"/>
							</g>
							<g id="g29" transform="translate(175.7024,58.9754)">
								<path id="path31" class="st4" d="M39.4-278.4v20.3h4.1v-16.4h7.7v16.4h4.1v-16.4h2.3v-8.1h-4.1v4.2H39.4z"/>
							</g>
							<g id="g33" transform="translate(190.0032,58.9754)">
								<path id="path35" class="st4" d="M65.6-278.4h-4.1v12.9l-9.4-12.9h-3.5v20.3h4.1V-271l9.4,12.9h3.5V-278.4z"/>
							</g>
							<g id="g37" transform="translate(197.722,61.5154)" inkscape:label="g37">
								<path id="path39" class="st4" d="M79.8-273.7c0.8,0.9,1.3,1.9,1.3,3.2c0,1.3-0.4,2.4-1.3,3.3c-0.8,0.9-2,1.3-3.4,1.4v-9.3
									C77.8-275.1,78.9-274.6,79.8-273.7 M68.9-267.2c-0.8-0.9-1.2-1.9-1.2-3.3c0-1.3,0.4-2.4,1.3-3.2c0.8-0.9,2-1.3,3.4-1.4v9.3
									C70.9-265.9,69.8-266.4,68.9-267.2 M76.4-278.9v-2.6h-4.1v2.6c-2.5,0.1-4.6,0.9-6.3,2.6c-1.6,1.6-2.4,3.6-2.4,5.9
									s0.8,4.2,2.5,5.9c1.6,1.6,3.7,2.5,6.3,2.6v2.2h4.1v-2.2c2.5-0.1,4.6-0.9,6.3-2.6c1.6-1.6,2.5-3.6,2.5-5.9s-0.8-4.2-2.5-5.9
									C81-278,78.9-278.8,76.4-278.9"/>
							</g>
							<g id="g41" transform="translate(204.3978,64.7595)">
								<path id="path43" class="st4" d="M92-267.8h-3.8v-5.8H92c0.8,0,1.5,0.3,2,0.8c0.5,0.6,0.8,1.2,0.8,2.1
									c0,0.8-0.3,1.5-0.8,2.1C93.5-268.1,92.8-267.8,92-267.8 M84.1-263.9h8c2,0,3.6-0.7,4.9-2s1.9-2.9,1.9-4.9
									c0-1.9-0.6-3.6-1.9-4.9s-2.9-2-4.9-2h-3.9v-6.7h-4.1V-263.9z"/>
							</g>
							<g id="g45" transform="translate(210.6399,64.2322)">
								<path id="path47" class="st4" d="M103.5-268.8c-1.2-1.3-1.8-2.9-1.8-4.7c0-1.9,0.6-3.5,1.8-4.7c1.2-1.3,2.6-1.9,4.3-1.9
									c1.7,0,3.2,0.6,4.3,1.9c1.2,1.3,1.8,2.9,1.8,4.7c0,1.9-0.6,3.5-1.8,4.7c-1.2,1.3-2.6,1.9-4.3,1.9
									C106.1-266.8,104.7-267.5,103.5-268.8 M100.5-281c-2,2.1-3,4.6-3,7.5s1,5.4,3,7.5c2,2.1,4.4,3.1,7.3,3.1s5.3-1,7.3-3.1
									c2-2.1,3-4.6,3-7.5s-1-5.4-3-7.5c-2-2.1-4.4-3.1-7.3-3.1S102.5-283.1,100.5-281"/>
							</g>
							<g id="g49" transform="translate(219.3724,60.2556)">
								<path id="path51" class="st4" d="M119.5-276.1h4.3c0.7,0,1.4,0.2,1.9,0.8c0.5,0.5,0.7,1.1,0.7,1.9c0,0.7-0.2,1.4-0.7,1.9
									s-1.1,0.8-1.9,0.8h-4.3V-276.1z M123.3-263h-3.8v-4.4h3.8c0.7,0,1.2,0.2,1.6,0.6c0.4,0.4,0.6,0.9,0.6,1.6s-0.2,1.2-0.6,1.6
									C124.5-263.2,124-263,123.3-263 M124-279.7h-8.6v20.3h8.2c1.7,0,3.2-0.5,4.3-1.6c1.1-1.1,1.7-2.3,1.7-3.8
									c0-0.5-0.1-1.1-0.2-1.5c-0.1-0.5-0.3-0.9-0.5-1.2c-0.2-0.3-0.4-0.6-0.7-0.8c-0.2-0.2-0.4-0.4-0.5-0.5l-0.2-0.1
									c0.1,0,0.2-0.1,0.3-0.2c0.1-0.1,0.4-0.2,0.8-0.5c0.4-0.3,0.7-0.6,1-0.9s0.5-0.8,0.7-1.4s0.3-1.2,0.3-1.8
									c0-1.6-0.6-3-1.8-4.2C127.5-279.1,125.9-279.7,124-279.7"/>
							</g>
							<g id="g53" transform="translate(228.6341,61.9949)">
								<path id="path55" class="st4" d="M136.5-272.9l-2.3,6.7l-2.3-6.7H136.5z M137.8-276.6h-7.3l-1.6-4.8h-4.4l7.5,20.3h4.3
									l7.5-20.3h-4.4L137.8-276.6z"/>
							</g>
							<g id="g57" transform="translate(234.1028,63.7898)">
								<path id="path59" class="st4" d="M146.5-269.6c0-0.7,0.2-1.4,0.7-1.9s1.1-0.8,1.9-0.8h4.2v5.4h-4.2c-0.7,0-1.4-0.3-1.9-0.8
									C146.8-268.1,146.5-268.8,146.5-269.6 M157.4-262.9v-20.3h-4.1v7.1h-3.5l-3.7-7.1h-4.3l4.1,7.7c-0.1,0-0.2,0.1-0.4,0.2
									s-0.4,0.3-0.8,0.7c-0.4,0.3-0.7,0.7-1,1.1s-0.6,1-0.8,1.7s-0.4,1.5-0.4,2.3c0,1.9,0.6,3.5,1.8,4.7c1.2,1.3,2.8,1.9,4.7,1.9
									L157.4-262.9L157.4-262.9z"/>
							</g>
							<g id="g61" transform="translate(248.8802,66.1443)">
								<path id="path63" class="st4" d="M173.6-265.3v-20.3h-4.1v16.4h-8v-16.4h-4.1v20.3H173.6z"/>
							</g>
							<g id="g65" transform="translate(256.9895,66.1443)">
								<path id="path67" class="st4" d="M188.5-265.3v-20.3h-4.1v16.4h-5.6v-2.3c0-2.9-0.2-5.3-0.4-7.2c-0.3-1.9-0.7-3.4-1.3-4.5
									c-0.6-1-1.2-1.8-1.9-2.2c-0.7-0.4-1.6-0.6-2.6-0.6c-0.4,0-0.8,0-1.2,0.1s-0.7,0.2-0.9,0.2l-0.3,0.1v4.1
									c0.5-0.2,0.9-0.3,1.4-0.3c0.7,0,1.3,0.2,1.7,0.7s0.8,1.5,1.1,3c0.3,1.5,0.4,3.7,0.4,6.5v6.3L188.5-265.3L188.5-265.3z"/>
							</g>
							<g id="g69" transform="translate(262.9427,61.9949)">
								<path id="path71" class="st4" d="M199.4-272.9l-2.3,6.7l-2.3-6.7H199.4z M200.8-276.6h-7.3l-1.6-4.8h-4.4l7.5,20.3h4.3
									l7.5-20.3h-4.4L200.8-276.6z"/>
							</g>
							<g id="g73" transform="translate(266.011,66.1443)">
								<path id="path75" class="st4" d="M205.1-265.3h15v-3.9h-5.4v-16.4h-4.1v16.4h-5.4v3.9H205.1z"/>
							</g>
							<g id="g77" transform="translate(278.1438,61.5154)">
								<path id="path79" class="st4" d="M227.3-273.7c0.8,0.9,1.3,1.9,1.3,3.2c0,1.3-0.4,2.4-1.3,3.3c-0.8,0.9-2,1.3-3.4,1.4v-9.3
									C225.4-275.1,226.5-274.6,227.3-273.7 M216.5-267.2c-0.8-0.9-1.3-1.9-1.3-3.3c0-1.3,0.4-2.4,1.3-3.2c0.8-0.9,2-1.3,3.4-1.4
									v9.3C218.4-265.9,217.3-266.4,216.5-267.2 M223.9-278.9v-2.6h-4.1v2.6c-2.5,0.1-4.6,0.9-6.3,2.6c-1.6,1.6-2.4,3.6-2.4,5.9
									s0.8,4.2,2.4,5.9c1.6,1.6,3.7,2.5,6.3,2.6v2.2h4.1v-2.2c2.5-0.1,4.6-0.9,6.3-2.6c1.6-1.6,2.5-3.6,2.5-5.9s-0.8-4.2-2.5-5.9
									C228.6-278,226.5-278.8,223.9-278.9"/>
							</g>
							<g id="g81" transform="translate(283.7708,64.2322)">
								<path id="path83" class="st4" d="M237.6-268.8c-1.2-1.3-1.8-2.9-1.8-4.7c0-1.9,0.6-3.5,1.8-4.7c1.2-1.3,2.6-1.9,4.3-1.9
									c1.7,0,3.2,0.6,4.3,1.9c1.2,1.3,1.8,2.9,1.8,4.7c0,1.9-0.6,3.5-1.8,4.7c-1.2,1.3-2.6,1.9-4.3,1.9
									C240.3-266.8,238.8-267.5,237.6-268.8 M234.6-281c-2,2.1-3,4.6-3,7.5s1,5.4,3,7.5s4.4,3.1,7.3,3.1c2.9,0,5.4-1,7.4-3.1
									s3-4.6,3-7.5s-1-5.4-3-7.5s-4.5-3.1-7.4-3.1C239.1-284.1,236.6-283.1,234.6-281"/>
							</g>
							<g id="g85" transform="translate(293.843,64.7595)">
								<path id="path87" class="st4" d="M256.1-267.8h-3.8v-5.8h3.8c0.8,0,1.5,0.3,2,0.8c0.5,0.6,0.8,1.2,0.8,2.1
									c0,0.8-0.3,1.5-0.8,2.1C257.6-268.1,256.9-267.8,256.1-267.8 M248.2-263.9h8c2,0,3.6-0.7,4.9-2s1.9-2.9,1.9-4.9
									c0-1.9-0.6-3.6-1.9-4.9s-2.9-2-4.9-2h-3.9v-6.7h-4.1C248.2-284.4,248.2-263.9,248.2-263.9z"/>
							</g>
							<g id="g89" transform="translate(301.9524,63.0193)">
								<path id="path91" class="st4" d="M271-271l6.6,8.9h3.6v-20.3h-4.1v13.5l-6.1-8.3l-6.1,8.3v-13.5h-4.1v20.3h3.7L271-271z"/>
							</g>
							<g id="g93" transform="translate(311.5032,61.9949)">
								<path id="path95" class="st4" d="M288.5-272.9l-2.3,6.7l-2.3-6.7H288.5z M289.9-276.6h-7.3l-1.6-4.8h-4.4l7.5,20.3h4.3
									l7.5-20.3h-4.4L289.9-276.6z"/>
							</g>
							<g id="g97" transform="translate(186.3235,112.3494)">
								<path id="path99" class="st4" d="M58.9-180.5c4.5,0,8.8-0.6,12.9-1.8s7.4-2.6,10-4.3s4.9-3.4,7-5c2-1.7,3.5-3.1,4.3-4.3
									l1.4-1.8l-11.7-11.7c-0.2,0.3-0.6,0.8-1,1.3c-0.4,0.6-1.4,1.6-2.8,3c-1.5,1.4-3.1,2.6-4.8,3.7c-1.7,1.1-4,2-6.8,2.9
									s-5.7,1.3-8.6,1.3c-8,0-14.8-2.7-20.2-8.1c-5.4-5.4-8.1-12.1-8.1-20.2c0-8,2.7-14.8,8.1-20.2s12.1-8.1,20.2-8.1
									c3.1,0,6.1,0.4,9,1.3c2.9,0.9,5.2,1.9,7.1,3.1c1.9,1.2,3.5,2.4,5,3.6c1.4,1.2,2.5,2.2,3.1,3.1l1,1.3L95.1-253
									c-0.3-0.5-0.8-1.1-1.5-1.9c-0.7-0.8-2.1-2.2-4.4-4.1c-2.3-2-4.7-3.7-7.3-5.2c-2.6-1.5-6-2.9-10.1-4.1
									c-4.2-1.2-8.5-1.9-13-1.9c-13.1,0-24.2,4.4-33.2,13.2c-9,8.8-13.5,19.3-13.5,31.7c0,12.4,4.5,22.9,13.5,31.7
									S45.7-180.5,58.9-180.5"/>
							</g>
							<g id="g101" transform="translate(219.9114,94.1482)">
								<path id="path103" class="st4" d="M120.5-213.9L110-185.6l-10.5-28.3C99.5-213.9,120.5-213.9,120.5-213.9z M126.6-229.8
									H93.4L86-250.1H66.4l33.8,86h19.6l33.8-86H134L126.6-229.8z"/>
							</g>
							<g id="g105" transform="translate(261.7317,111.7146)">
								<path id="path107" class="st4" d="M197.2-181.6v-86h-18.4v69.4h-36.2v-69.4h-18.5v86H197.2z"/>
							</g>
							<g id="g109" transform="translate(273.2024,111.7146)">
								<path id="path111" class="st4" d="M218.2-181.6l20.3-40.6l17.2,40.6h19.7l-30.1-64.6c-3.5-7.4-7.7-13.1-12.4-16.9
									c-4.8-3.8-10.7-5.8-17.7-5.8c-1.6,0-3.3,0.2-4.9,0.5c-1.6,0.3-2.9,0.6-3.7,1l-1.3,0.4v16c2-0.8,4.5-1.2,7.4-1.2
									c6.2,0,10.9,2.9,14.2,8.6l2.5,4.3l-30.7,57.8h19.5V-181.6z"/>
							</g>
							<g id="g113" transform="translate(309.8167,105.8523)">
								<path id="path115" class="st4" d="M285.4-192.4h-17.2v-24.5h17.2c3.7,0,6.7,1.2,9.2,3.5c2.5,2.4,3.7,5.3,3.7,8.7
									s-1.2,6.3-3.7,8.7C292.2-193.6,289.1-192.4,285.4-192.4 M249.8-175.8H286c8.8,0,16.2-2.8,22-8.3s8.7-12.4,8.7-20.6
									c0-8.2-2.9-15-8.7-20.6c-5.8-5.5-13.1-8.3-22-8.3h-17.8v-28.3h-18.5L249.8-175.8L249.8-175.8z"/>
							</g>
						</g>
					</g>
				</g>
			</g>
		</g>
		<g id="g117">
			<g>
				<g>
					<g>
						<defs>
							<path id="SVGID_3_" d="M-161.5-143.4c0-80.8,65.5-146.3,146.3-146.3l0,0c80.8,0,146.3,65.5,146.3,146.3l0,0
								C131.1-62.6,65.6,2.9-15.2,2.9l0,0C-96,2.9-161.5-62.6-161.5-143.4"/>
						</defs>
						<clipPath id="SVGID_4_">
							<use xlink:href="#SVGID_3_"  style="overflow:visible;"/>
						</clipPath>
						<g id="g119" class="st5">
							<g id="g127" transform="translate(86.4776,111.8356)">
								<path id="path129" class="st6" d="M-124.3-181.4c-8.3,0-16.2,7.6-16.2,15.8c-0.1,8.8,6.8,16.1,15.5,16.3
									c9.3,0.2,16.8-7,16.7-16C-108.5-173.6-116.2-181.4-124.3-181.4"/>
							</g>
							<g id="g131" transform="translate(103.623,104.3275)">
								<path id="path133" class="st6" d="M-92.9-195.2c-9,0-15.7,6.7-15.6,15.8c0,9.2,6.6,15.9,15.5,15.9c8.8,0,15.8-7,15.9-15.8
									C-77.1-188.2-84.1-195.2-92.9-195.2"/>
							</g>
							<g id="g135" transform="translate(86.4953,98.184)">
								<path id="path137" class="st6" d="M-124.3-206.5c-8.7-0.1-15.9,7-16,15.7c-0.1,8.8,6.9,15.9,15.7,15.9
									c8.5,0,16.2-7.4,16.2-15.7C-108.5-199-115.8-206.4-124.3-206.5"/>
							</g>
							<g id="g139" transform="translate(103.4387,101.7483)">
								<path id="path141" class="st6" d="M-93.2-199.9c8.7,0.3,15.8-6.7,16-15.6c0.2-8.8-6.7-15.8-15.6-15.9
									c-8.5,0-15.2,6.5-15.4,15C-108.5-207.4-102-200.2-93.2-199.9"/>
							</g>
							<g id="g143" transform="translate(92.0146,90.2656)">
								<path id="path145" class="st6" d="M-114.2-221c0.2-8.5-7.1-16.2-15.6-16.2c-8.9,0-16,6.9-16,15.7c0,8.3,6.7,15.4,15,15.7
									C-122-205.4-114.4-212.4-114.2-221"/>
							</g>
							<g id="g147" transform="translate(126.305,90.1263)">
								<path id="path149" class="st6" d="M-51.3-221.3c0-8.4-7.7-15.9-16-15.8c-8,0.1-15.3,7.3-15.5,15.3
									c-0.2,8.6,6.9,16.1,15.5,16.2C-58.8-205.4-51.2-212.9-51.3-221.3"/>
							</g>
							<g id="g151" transform="translate(103.7521,76.9295)">
								<path id="path153" class="st6" d="M-92.6-245.5c-9-0.2-15.9,6.5-15.9,15.7c0,8.5,6.5,15.4,14.9,15.9
									c8.3,0.4,16.1-7.2,16.2-15.8C-77.4-237.9-84.5-245.3-92.6-245.5"/>
							</g>
							<g id="g155" transform="translate(109.0004,68.6796)">
								<path id="path157" class="st6" d="M-83-260.6c0-8.6-6.6-15.3-15-15.5c-8.8-0.2-15.7,6.8-15.7,15.8c0.1,8.6,6.6,15.3,15,15.4
									C-89.9-244.7-83-251.7-83-260.6"/>
							</g>
							<g id="g159" transform="translate(69.2312,88.4731)">
								<path id="path161" class="st6" d="M-156-224.3c-9.2,0.1-15.9,6.7-15.8,15.7c0.1,8.8,7.1,15.3,16.3,15.1
									c9.1-0.2,15.5-7,15.2-16.2C-140.6-218.3-147.2-224.4-156-224.3"/>
							</g>
							<g id="g163" transform="translate(74.7215,80.2384)">
								<path id="path165" class="st6" d="M-145.9-239.4c0.1-8.7-6.2-15.3-14.9-15.5c-9.1-0.2-16.2,6.3-16.5,15.1
									c-0.2,8.5,7.1,15.5,16,15.4C-152.4-224.4-146-230.7-145.9-239.4"/>
							</g>
							<g id="g167" transform="translate(126.277,76.3357)">
								<path id="path169" class="st6" d="M-51.3-246.6c-0.1-8.3-7.1-15.2-15.4-15.3c-8.8-0.1-16.1,7.1-16,15.7
									c0.1,8.2,7.2,15.3,15.4,15.4C-58.7-230.7-51.2-238-51.3-246.6"/>
							</g>
							<g id="g171" transform="translate(69.3044,34.212)">
								<path id="path173" class="st6" d="M-155.8-323.8h-0.6c-8.5,0-15.4,6.9-15.4,15.4v73.4c0,8.5,6.9,15.4,15.4,15.4h0.6
									c8.5,0,15.4-6.9,15.4-15.4v-73.4C-140.5-317-147.3-323.8-155.8-323.8"/>
							</g>
							<g id="g175" transform="translate(86.5803,28.9541)">
								<path id="path177" class="st6" d="M-124.1-333.5h-0.6c-8.5,0-15.4,6.9-15.4,15.4v118.5c0,8.5,6.9,15.4,15.4,15.4h0.6
									c8.5,0,15.4-6.9,15.4-15.4v-118.5C-108.8-326.6-115.7-333.5-124.1-333.5"/>
							</g>
							<g id="g179" transform="translate(103.697,7.8958)">
								<path id="path181" class="st6" d="M-92.7-372.1h-0.6c-8.5,0-15.4,6.9-15.4,15.4v118.5c0,8.5,6.9,15.4,15.4,15.4h0.6
									c8.5,0,15.4-6.9,15.4-15.4v-118.5C-77.4-365.2-84.3-372.1-92.7-372.1"/>
							</g>
							<g id="g183" transform="translate(120.8524,16.0966)">
								<path id="path185" class="st6" d="M-61.3-357.1h-0.6c-8.5,0-15.4,6.9-15.4,15.4v118.5c0,8.5,6.9,15.4,15.4,15.4h0.6
									c8.5,0,15.4-6.9,15.4-15.4v-118.5C-45.9-350.2-52.8-357.1-61.3-357.1"/>
							</g>
						</g>
					</g>
				</g>
			</g>
		</g>
		<g id="g187">
			<g>
				<g>
					<g>
						<defs>
							<rect id="SVGID_5_" x="174.4" y="-155.2" width="93.6" height="47.4"/>
						</defs>
						<clipPath id="SVGID_6_">
							<use xlink:href="#SVGID_5_"  style="overflow:visible;"/>
						</clipPath>
						<g id="g189" class="st7">
							<g id="g195" transform="translate(146.0692,85.8107)">
								<path id="path197" class="st8" d="M-15-229.2c0-80.8-65.5-146.3-146.3-146.3S-307.6-310-307.6-229.2S-242-82.9-161.3-82.9
									S-15-148.4-15-229.2z"/>
							</g>
						</g>
					</g>
				</g>
			</g>
		</g>
	</g>
</g>
<g id="layer4" inkscape:groupmode="layer" inkscape:label="Р В Р Р‹Р В Р’В»Р В РЎвЂўР В РІвЂћвЂ“ 3" class="st0">
	<g id="g648" transform="matrix(0.45336071,0,0,-0.45336071,-16.711564,120.09956)" inkscape:label="LOGO" class="st1">
		<g id="g650">
			<g>
				<g>
					<g>
						<defs>
							<rect id="SVGID_7_" x="230.8" y="-155" width="116.3" height="47.6"/>
						</defs>
						<clipPath id="SVGID_8_">
							<use xlink:href="#SVGID_7_"  style="overflow:visible;"/>
						</clipPath>
						<g id="g652" class="st9">
							<g id="g658" transform="translate(326.6453,52.648)">
								<path id="path660" class="st10" d="M264-289.8H-88.8c-6.4,0-11.6,5.2-11.6,11.6v35.7c0,6.4,5.2,11.6,11.6,11.6H264
									c6.4,0,11.6-5.2,11.6-11.6v-35.7C275.6-284.6,270.4-289.8,264-289.8z"/>
							</g>
							<g id="g662" transform="translate(208.7121,58.9754)">
								<path id="path664" class="st4" d="M47.6-278.2h-9.9c-2.5,0-3.7,1.2-3.7,3.6v17.4c0,0.2,0.1,0.3,0.2,0.4s0.2,0.2,0.4,0.2H36
									c0.2,0,0.3-0.1,0.4-0.2c0.1-0.1,0.2-0.2,0.2-0.4v-17.4c0-0.5,0.1-0.8,0.2-1c0.1-0.2,0.5-0.3,1-0.3h6.9c0.5,0,0.9,0.1,1,0.3
									c0.1,0.2,0.2,0.5,0.2,1v17.4c0,0.2,0.1,0.3,0.2,0.4c0.1,0.1,0.2,0.2,0.4,0.2h1.4c0.1,0,0.3-0.1,0.4-0.2
									c0.1-0.1,0.2-0.2,0.2-0.4v-17.4c0-0.4,0-0.9-0.1-1.3h1.4c0.3,0,0.5-0.2,0.5-0.6v-4.7c0-0.2,0-0.3-0.1-0.4s-0.2-0.2-0.4-0.2
									h-1.5c-0.1,0-0.3,0.1-0.4,0.2c-0.1,0.1-0.1,0.3-0.1,0.4v3H47.6z"/>
							</g>
							<g id="g666" transform="translate(211.2941,59.2703)">
								<path id="path668" class="st4" d="M52.4-277.6v20.2c0,0.4,0.2,0.6,0.5,0.6h1.4c0.1,0,0.2-0.1,0.3-0.2s0.1-0.2,0.1-0.4v-17
									c0-0.1,0-0.1,0-0.1l8.4,17c0.1,0.2,0.2,0.4,0.4,0.5c0.1,0.1,0.4,0.1,0.7,0.1h1.5c0.2,0,0.4-0.1,0.5-0.2
									c0.2-0.2,0.2-0.4,0.2-0.6v-20.4c0-0.2-0.2-0.4-0.5-0.4h-1.4c-0.1,0-0.3,0.1-0.4,0.2c-0.1,0.1-0.1,0.2-0.1,0.4v16.9
									c0,0.1,0,0.1,0,0.1s-0.1,0-0.1-0.1l-8.4-17c-0.2-0.3-0.5-0.5-0.9-0.5h-1.7c-0.2,0-0.4,0.1-0.5,0.2
									C52.5-278.1,52.4-277.9,52.4-277.6"/>
							</g>
							<g id="g670" transform="translate(222.422,64.7)">
								<path id="path672" class="st4" d="M72.8-267.7h-1v-9.9c0.2,0,0.6,0,1,0c1.8,0,3.1,0.4,3.9,1.1s1.2,1.9,1.2,3.5v1
									C77.9-269.1,76.2-267.7,72.8-267.7 M69.3-267.7h-1c-3.4,0-5.1-1.5-5.1-4.4v-1c0-1.6,0.4-2.7,1.2-3.5
									c0.8-0.8,2.1-1.1,3.9-1.1c0.4,0,0.8,0,1,0V-267.7z M71.8-262.7v-2.7h1c2.4,0,4.3-0.6,5.6-1.7c1.3-1.1,2-2.8,2-4.9v-1
									c0-2.3-0.7-4-2.1-5.1c-1.4-1.1-3.2-1.7-5.6-1.7c-0.5,0-0.8,0-1,0v-3.6c0-0.2,0-0.3-0.1-0.4s-0.2-0.2-0.4-0.2h-1.5
									c-0.1,0-0.3,0.1-0.4,0.2s-0.1,0.3-0.1,0.4v3.6c-0.2,0-0.6,0-1,0c-2.4,0-4.3,0.6-5.6,1.7c-1.3,1.2-2,2.8-2,5.1v1
									c0,2.1,0.7,3.8,2,4.9c1.3,1.1,3.2,1.7,5.6,1.7h1v2.7c0,0.2,0,0.3,0.1,0.4s0.2,0.2,0.4,0.2h1.5c0.1,0,0.3-0.1,0.4-0.2
									C71.7-262.4,71.8-262.6,71.8-262.7"/>
							</g>
							<g id="g674" transform="translate(230.5724,64.2996)">
								<path id="path676" class="st4" d="M87.7-268.4v0.4c0,1.4-0.4,2.5-1.2,3.1c-0.8,0.6-2.1,1-3.9,1c-0.9,0-1.8,0-2.7-0.1v-8.5
									c1.7-0.1,2.6-0.1,2.7-0.1c1.8,0,3.1,0.3,3.9,1C87.3-271.1,87.7-270,87.7-268.4 M90.2-268.4c0-4.3-2.5-6.5-7.6-6.5
									c-0.6,0-1.6,0-2.7,0.1v-8.1c0-0.2,0-0.3-0.1-0.4s-0.2-0.2-0.4-0.2h-1.5c-0.1,0-0.3,0.1-0.4,0.2s-0.1,0.3-0.1,0.4v20.2
									c0,0.2,0.1,0.4,0.2,0.6s0.8,0.3,2,0.3c1.2,0.1,2.2,0.1,2.9,0.1c5.1,0,7.6-2.1,7.6-6.3L90.2-268.4L90.2-268.4z"/>
							</g>
							<g id="g678" transform="translate(237.4806,62.1199)">
								<path id="path680" class="st4" d="M100.4-272.4v3.7c0,4.5-1.6,6.7-4.8,6.7c-3.3,0-4.9-2.2-4.9-6.7v-3.7
									c0-4.5,1.6-6.7,4.9-6.7C98.8-279.1,100.4-276.9,100.4-272.4 M102.9-272.4c0-3-0.6-5.2-1.9-6.8c-1.3-1.6-3.1-2.3-5.4-2.3
									s-4.2,0.8-5.4,2.3c-1.3,1.6-1.9,3.8-1.9,6.8v3.7c0,3.1,0.7,5.4,2,6.9s3.1,2.2,5.4,2.2s4.2-0.8,5.4-2.3
									c1.3-1.6,1.9-3.8,1.9-6.8L102.9-272.4L102.9-272.4z"/>
							</g>
							<g id="g682" transform="translate(244.2717,61.075)">
								<path id="path684" class="st4" d="M112.9-274.3v0.5c0,2.5-1.4,3.7-4.1,3.7h-4.2v-8c1.7-0.1,2.6-0.1,2.8-0.1
									c2,0,3.4,0.3,4.2,0.9C112.5-276.7,112.9-275.7,112.9-274.3 M112.8-264.6v0.5c0,1.2-0.4,2-1.2,2.6c-0.8,0.5-2.2,0.8-4.3,0.8
									c-0.3,0-1.2,0-2.7-0.1v-7.2h4.2C111.4-268,112.8-266.9,112.8-264.6 M115.3-274.3c0-4.1-2.6-6.2-7.9-6.2
									c-1.2,0-2.3,0-3.4,0.1c-1,0.1-1.6,0.2-1.7,0.4c-0.2,0.2-0.2,0.5-0.2,0.8v19.3c0,0.3,0,0.5,0.1,0.6c0.1,0.2,0.2,0.3,0.4,0.4
									c0.2,0.1,0.8,0.1,1.7,0.2c1,0.1,2,0.1,2.9,0.1c5.3,0,8-1.9,8-5.6v-0.5c0-1.1-0.3-2-0.8-2.8c-0.5-0.8-1.2-1.4-2.2-1.8
									c1-0.4,1.7-1,2.2-1.8c0.5-0.8,0.8-1.8,0.8-2.9L115.3-274.3L115.3-274.3z"/>
							</g>
							<g id="g686" transform="translate(250.257,62.2947)">
								<path id="path688" class="st4" d="M123.9-272.1l-1.9,7.4c-0.4,1.5-0.6,2.3-0.6,2.3c0,0.1,0,0.1-0.1,0.2
									c0,0.1-0.1,0.1-0.2,0.2c-0.1,0-0.1,0.1-0.2,0.1s-0.2,0-0.3-0.1c-0.1,0-0.1-0.1-0.2-0.2c0-0.1-0.2-0.6-0.5-1.7l-2.1-8.1
									L123.9-272.1L123.9-272.1z M117.3-274.4l-1.7-6.7c0-0.2-0.1-0.3-0.2-0.3c-0.1-0.1-0.2-0.1-0.3-0.1h-1.6
									c-0.3,0-0.5,0.2-0.5,0.5c0,0.1,0,0.1,0,0.2l5,18.9c0.4,1.5,1.3,2.2,2.8,2.2c1.4,0,2.4-0.7,2.8-2.2l5-18.9c0,0,0-0.1,0-0.2
									c0-0.3-0.2-0.5-0.5-0.5h-1.6c-0.1,0-0.2,0-0.3,0.1c-0.1,0.1-0.2,0.4-0.4,1.1l-1.6,5.9H117.3z"/>
							</g>
							<g id="g690" transform="translate(257.4982,62.9802)">
								<path id="path692" class="st4" d="M137.1-270.8v7.9c-0.4,0.1-1.4,0.1-3,0.1c-1.8,0-3.2-0.3-4-0.9s-1.2-1.6-1.2-2.9v-0.2
									c0-1.5,0.4-2.5,1.3-3.1c0.8-0.6,2.1-0.9,3.9-0.9C134.9-270.9,135.9-270.9,137.1-270.8 M139.6-281.6c0-0.2,0-0.3-0.1-0.4
									s-0.2-0.2-0.4-0.2h-1.5c-0.1,0-0.2,0.1-0.3,0.2s-0.1,0.3-0.1,0.4v8.5c-1-0.1-2-0.1-3-0.1h-0.7l-3.1-5.5
									c-1.2-2.1-1.8-3.2-1.9-3.3c-0.1-0.1-0.1-0.1-0.2-0.2c-0.1,0-0.2-0.1-0.4-0.1h-1.7c-0.2,0-0.3,0.1-0.3,0.4
									c0,0.1,0,0.2,0.1,0.3l5,8.8c-1.4,0.4-2.4,1.1-3.2,2.1c-0.7,1-1.1,2.3-1.1,3.7v0.2c0,4.2,2.5,6.2,7.6,6.2
									c1.3,0,2.5,0,3.5-0.1s1.6-0.2,1.7-0.2c0.1-0.1,0.2-0.3,0.2-0.5L139.6-281.6L139.6-281.6z"/>
							</g>
							<g id="g694" transform="translate(267.9035,59.1804)">
								<path id="path696" class="st4" d="M156.2-277.8v17.4c0,0.5-0.1,0.8-0.2,1c-0.1,0.2-0.5,0.3-1,0.3h-6.9c-0.5,0-0.9-0.1-1-0.3
									c-0.1-0.2-0.2-0.5-0.2-1v-17.4c0-0.2-0.1-0.3-0.2-0.4c-0.1-0.1-0.2-0.2-0.4-0.2H145c-0.2,0-0.3,0.1-0.4,0.2
									c-0.1,0.1-0.2,0.3-0.2,0.4v17.4c0,2.4,1.2,3.6,3.7,3.6h6.9c2.5,0,3.7-1.2,3.7-3.6v-17.4c0-0.2-0.1-0.3-0.2-0.4
									c-0.1-0.1-0.2-0.2-0.4-0.2h-1.4c-0.1,0-0.3,0.1-0.4,0.2C156.3-278.1,156.2-278,156.2-277.8"/>
							</g>
							<g id="g698" transform="translate(275.2004,59.1306)">
								<path id="path700" class="st4" d="M169.6-277.9l-4.8,18.5c-0.1,0.4-0.3,0.5-0.5,0.5c-0.3,0-0.5-0.2-0.5-0.5l-4.7-18.5
									c-0.1-0.3-0.2-0.4-0.5-0.4H157c-0.3,0-0.5,0.2-0.5,0.5c0,0.1,0,0.1,0,0.2l5,18.9c0.4,1.5,1.3,2.2,2.8,2.2
									c1.4,0,2.4-0.7,2.7-2.2l5-18.9c0,0,0-0.1,0-0.2c0-0.3-0.2-0.5-0.5-0.5h-1.6C169.8-278.3,169.7-278.2,169.6-277.9"/>
							</g>
							<g id="g702" transform="translate(281.2326,62.2947)">
								<path id="path704" class="st4" d="M180.7-272.1l-1.9,7.4c-0.4,1.5-0.6,2.3-0.6,2.3c0,0.1,0,0.1-0.1,0.2
									c0,0.1-0.1,0.1-0.2,0.2c-0.1,0-0.1,0.1-0.2,0.1c-0.1,0-0.2,0-0.3-0.1c-0.1,0-0.1-0.1-0.2-0.2c0-0.1-0.2-0.6-0.5-1.7
									l-2.1-8.1L180.7-272.1L180.7-272.1z M174.2-274.4l-1.7-6.7c0-0.2-0.1-0.3-0.2-0.3c-0.1-0.1-0.2-0.1-0.3-0.1h-1.6
									c-0.3,0-0.5,0.2-0.5,0.5c0,0.1,0,0.1,0,0.2l5,18.9c0.4,1.5,1.3,2.2,2.8,2.2c1.4,0,2.4-0.7,2.8-2.2l5-18.9c0,0,0-0.1,0-0.2
									c0-0.3-0.2-0.5-0.5-0.5h-1.6c-0.1,0-0.2,0-0.3,0.1s-0.2,0.4-0.4,1.1l-1.6,5.9H174.2z"/>
							</g>
							<g id="g706" transform="translate(288.174,65.949)">
								<path id="path708" class="st4" d="M193.4-265.4c0-0.3-0.2-0.5-0.5-0.5h-5.3v-18.7c0-0.2,0-0.3-0.1-0.4s-0.2-0.2-0.3-0.2
									h-1.5c-0.1,0-0.2,0.1-0.3,0.2s-0.1,0.3-0.1,0.4v18.7H180c-0.4,0-0.5,0.2-0.5,0.5v1.3c0,0.1,0.1,0.3,0.2,0.4
									c0.1,0.1,0.2,0.2,0.4,0.2h13.1c0.3,0,0.5-0.2,0.5-0.5v-1.4H193.4z"/>
							</g>
							<g id="g710" transform="translate(293.048,64.7)">
								<path id="path712" class="st4" d="M202.4-267.7h-1v-9.9c0.2,0,0.6,0,1,0c1.8,0,3.1,0.4,3.9,1.1c0.8,0.7,1.2,1.9,1.2,3.5v1
									C207.5-269.1,205.8-267.7,202.4-267.7 M198.9-267.7h-1c-3.4,0-5.1-1.5-5.1-4.4v-1c0-1.6,0.4-2.7,1.2-3.5s2.1-1.1,3.9-1.1
									c0.4,0,0.8,0,1,0C198.9-277.7,198.9-267.7,198.9-267.7z M201.3-262.7v-2.7h1c2.4,0,4.3-0.6,5.6-1.7s2-2.8,2-4.9v-1
									c0-2.3-0.7-4-2.1-5.1c-1.4-1.1-3.2-1.7-5.6-1.7c-0.5,0-0.8,0-1,0v-3.6c0-0.2,0-0.3-0.1-0.4s-0.2-0.2-0.4-0.2h-1.5
									c-0.1,0-0.3,0.1-0.4,0.2c-0.1,0.1-0.1,0.3-0.1,0.4v3.6c-0.2,0-0.6,0-1,0c-2.4,0-4.3,0.6-5.6,1.7c-1.3,1.2-2,2.8-2,5.1v1
									c0,2.1,0.7,3.8,2,4.9s3.2,1.7,5.6,1.7h1v2.7c0,0.2,0,0.3,0.1,0.4s0.2,0.2,0.4,0.2h1.5c0.1,0,0.3-0.1,0.4-0.2
									C201.3-262.4,201.3-262.6,201.3-262.7"/>
							</g>
							<g id="g714" transform="translate(301.6955,62.1199)">
								<path id="path716" class="st4" d="M218.2-272.4v3.7c0,4.5-1.6,6.7-4.8,6.7c-3.3,0-4.9-2.2-4.9-6.7v-3.7
									c0-4.5,1.6-6.7,4.9-6.7C216.6-279.1,218.2-276.9,218.2-272.4 M220.7-272.4c0-3-0.6-5.2-1.9-6.8c-1.3-1.6-3.1-2.3-5.4-2.3
									c-2.3,0-4.2,0.8-5.4,2.3c-1.3,1.6-1.9,3.8-1.9,6.8v3.7c0,3.1,0.7,5.4,2,6.9s3.1,2.2,5.4,2.2c2.3,0,4.2-0.8,5.4-2.3
									c1.3-1.6,1.9-3.8,1.9-6.8v-3.7L220.7-272.4L220.7-272.4z"/>
							</g>
							<g id="g718" transform="translate(308.3137,64.2996)">
								<path id="path720" class="st4" d="M230.4-268.4v0.4c0,1.4-0.4,2.5-1.2,3.1s-2.1,1-3.9,1c-0.9,0-1.8,0-2.7-0.1v-8.5
									c1.7-0.1,2.6-0.1,2.7-0.1c1.8,0,3.1,0.3,3.9,1C230-271.1,230.4-270,230.4-268.4 M232.8-268.4c0-4.3-2.5-6.5-7.6-6.5
									c-0.6,0-1.6,0-2.7,0.1v-8.1c0-0.2,0-0.3-0.1-0.4s-0.2-0.2-0.4-0.2h-1.5c-0.1,0-0.3,0.1-0.4,0.2c-0.1,0.1-0.1,0.3-0.1,0.4
									v20.2c0,0.2,0.1,0.4,0.2,0.6c0.1,0.2,0.8,0.3,2,0.3c1.2,0.1,2.2,0.1,2.9,0.1c5.1,0,7.6-2.1,7.6-6.3v-0.4L232.8-268.4
									L232.8-268.4z"/>
							</g>
							<g id="g722" transform="translate(316.9045,59.1804)">
								<path id="path724" class="st4" d="M246.1-277.8c0-0.2-0.1-0.3-0.2-0.4c-0.1-0.1-0.2-0.2-0.4-0.2h-1.3
									c-0.2,0-0.3,0.1-0.4,0.2c-0.1,0.1-0.2,0.3-0.2,0.4v17.2c0,0.1,0,0.1,0,0.1s0,0-0.1-0.1l-2.5-5.6c-0.9-2.1-1.4-3.2-1.5-3.3
									s-0.2-0.3-0.4-0.4s-0.4-0.1-0.7-0.1h-1.3c-0.3,0-0.5,0.1-0.7,0.2s-0.3,0.3-0.5,0.7l-2.9,6.5c-0.7,1.5-1,2.2-1,2.2s0,0,0-0.1
									v-17.2c0-0.2-0.1-0.3-0.2-0.4c-0.1-0.1-0.2-0.2-0.4-0.2h-1.3c-0.2,0-0.3,0.1-0.4,0.2c-0.1,0.1-0.2,0.3-0.2,0.4v20.1
									c0,0.2,0.1,0.4,0.2,0.6c0.2,0.2,0.3,0.2,0.5,0.2h1.8c0.4,0,0.7-0.2,0.9-0.5l4.5-10c0.1-0.2,0.2-0.3,0.3-0.3s0.2,0.1,0.3,0.3
									l4.5,10c0.1,0.3,0.4,0.5,0.9,0.5h1.8c0.2,0,0.4-0.1,0.6-0.2c0.2-0.2,0.2-0.4,0.2-0.6L246.1-277.8L246.1-277.8z"/>
							</g>
							<g id="g726" transform="translate(322.5099,62.2947)">
								<path id="path728" class="st4" d="M256.4-272.1l-1.9,7.4c-0.4,1.5-0.6,2.3-0.6,2.3c0,0.1,0,0.1-0.1,0.2
									c0,0.1-0.1,0.1-0.2,0.2c-0.1,0-0.1,0.1-0.2,0.1c-0.1,0-0.2,0-0.3-0.1c-0.1,0-0.1-0.1-0.2-0.2c0-0.1-0.2-0.6-0.5-1.7
									l-2.1-8.1L256.4-272.1L256.4-272.1z M249.9-274.4l-1.7-6.7c0-0.2-0.1-0.3-0.2-0.3c-0.1-0.1-0.2-0.1-0.3-0.1h-1.6
									c-0.3,0-0.5,0.2-0.5,0.5c0,0.1,0,0.1,0,0.2l5,18.9c0.4,1.5,1.3,2.2,2.8,2.2c1.4,0,2.4-0.7,2.8-2.2l5-18.9c0,0,0-0.1,0-0.2
									c0-0.3-0.2-0.5-0.5-0.5h-1.6c-0.1,0-0.2,0-0.3,0.1c-0.1,0.1-0.2,0.4-0.4,1.1l-1.6,5.9H249.9z"/>
							</g>
							<g id="g730" transform="translate(218.9582,82.5291)">
								<path id="path732" class="st4" d="M66.4-235c0-1-0.4-1.6-1.2-2.1c-0.8-0.4-3.2-0.9-7.1-1.4s-9-0.7-15.3-0.7
									c-10.4,0-18.6,3.3-24.6,10s-9.1,16.5-9.1,29.3v17.8c0,13,3,22.8,9,29.4c6,6.7,14.2,10,24.7,10c4.2,0,8.9-0.3,14.1-1
									c5.3-0.7,8.1-1.1,8.6-1.4c0.5-0.3,0.7-0.7,0.7-1.3v-6.5c0-0.9-0.6-1.4-1.9-1.4c-9.2,0.7-16.4,1.1-21.4,1.1
									c-14.8,0-22.2-9.7-22.2-29V-200c0-9.5,1.9-16.8,5.7-21.6c3.8-4.9,9.3-7.3,16.5-7.3c4.2,0,8.4,0.1,12.5,0.4l9,0.6
									c1.4,0,2.1-0.7,2.1-2.1L66.4-235L66.4-235z"/>
							</g>
							<g id="g734" transform="translate(239.7443,95.9548)">
								<path id="path736" class="st4" d="M104.6-210.3L95.7-178c-1.8,6.5-2.8,9.9-2.9,10.2c-0.1,0.2-0.2,0.5-0.4,0.8
									c-0.2,0.3-0.5,0.5-0.7,0.7c-0.3,0.2-0.6,0.2-1.1,0.2s-0.9-0.1-1.2-0.3c-0.4-0.2-0.6-0.5-0.8-0.8c-0.2-0.3-0.9-2.8-2.2-7.3
									l-9.9-35.8C76.5-210.3,104.6-210.3,104.6-210.3z M74-220.4l-8.2-29.4c-0.2-0.7-0.5-1.1-1-1.4c-0.5-0.3-0.9-0.4-1.3-0.4H56
									c-1.5,0-2.2,0.7-2.2,2.1c0,0.3,0,0.6,0.1,0.9l23.6,83c1.8,6.5,6.2,9.7,13,9.7s11.1-3.2,12.9-9.6l23.6-83.1
									c0.1-0.2,0.1-0.5,0.1-0.9c0-1.4-0.7-2.1-2.2-2.1h-7.5c-0.5,0-1,0.2-1.4,0.5c-0.4,0.4-1,2-1.7,4.8l-7.4,25.9L74-220.4z"/>
							</g>
							<g id="g738" transform="translate(272.0226,82.2654)">
								<path id="path740" class="st4" d="M163.8-235.5v76.3c0,2.1-0.3,3.6-1,4.3c-0.7,0.8-2.3,1.2-4.8,1.2h-32.1
									c-2.5,0-4.1-0.4-4.7-1.2c-0.7-0.8-1-2.2-1-4.3v-76.3c0-0.7-0.2-1.3-0.7-1.8s-1.1-0.7-1.8-0.7h-6.5c-0.7,0-1.3,0.2-1.8,0.7
									s-0.7,1.1-0.7,1.8v76.3c0,10.6,5.8,15.9,17.3,15.9h32c11.6,0,17.4-5.3,17.4-15.9v-76.3c0-0.7-0.2-1.3-0.7-1.8
									s-1.1-0.7-1.8-0.7h-6.5c-0.7,0-1.2,0.2-1.7,0.7C164-236.8,163.8-236.2,163.8-235.5"/>
							</g>
							<g id="g742" transform="translate(304.7394,113.6648)">
								<path id="path744" class="st4" d="M223.8-177.8l-28.3-73.1c-3.1-8.1-6.5-13.4-10.1-15.8s-8.5-3.6-14.7-3.6
									c-7.1,0-10.7,0.9-10.7,2.8v5.9c0,1.4,0.9,2.1,2.8,2.1c2.6-0.2,5.3-0.4,7.9-0.4c3.1,0,5.4,0.4,6.9,1.3
									c1.5,0.9,2.8,2.3,3.7,4.2c1,2,3.3,7.7,6.9,17.3h-0.6c-2.5,0-4.4,0.6-5.7,1.8s-2.4,3.2-3.4,5.9l-19.3,51.5
									c-0.2,0.5-0.2,1-0.2,1.4c0,1.2,0.7,1.9,2.1,1.9h7.8c1.1,0,1.8-0.6,2.3-1.8l18-47.8c0.4-1.1,0.7-1.8,1-2
									c0.3-0.3,0.8-0.4,1.6-0.4h0.7l19.5,50.3c0.5,1.2,1.3,1.8,2.2,1.8h7.9c1.4,0,2.1-0.6,2.1-1.9
									C224.1-176.9,224-177.3,223.8-177.8"/>
							</g>
							<g id="g746" transform="translate(326.6457,104.7654)">
								<path id="path748" class="st4" d="M264-194.2v1.7c0,6.3-1.9,10.8-5.7,13.6c-3.8,2.8-9.9,4.2-18.4,4.2
									c-4.2,0-8.4-0.2-12.8-0.5v-37.4c7.8-0.3,12.1-0.5,12.8-0.5c8.6,0,14.7,1.4,18.5,4.3C262.1-205.8,264-201,264-194.2
									 M275.6-194.2c0-19.1-11.9-28.6-35.7-28.6c-3,0-7.3,0.2-12.8,0.6V-258c0-0.7-0.2-1.3-0.7-1.8c-0.4-0.5-1-0.8-1.6-0.8H218
									c-0.7,0-1.2,0.2-1.7,0.7c-0.4,0.5-0.7,1.1-0.7,1.8v88.9c0,0.9,0.3,1.7,1,2.4s3.8,1.2,9.5,1.4c5.7,0.2,10.2,0.4,13.7,0.4
									c23.8,0,35.7-9.2,35.7-27.7v-1.5H275.6z"/>
							</g>
						</g>
					</g>
				</g>
			</g>
		</g>
		<g id="g750">
			<g>
				<g>
					<g>
						<defs>
							<path id="SVGID_9_" d="M-133.4-143.1c0-80.8,65.5-146.3,146.3-146.3l0,0c80.8,0,146.3,65.5,146.3,146.3l0,0
								C159.1-62.4,93.6,3.1,12.8,3.1l0,0C-67.9,3.1-133.4-62.4-133.4-143.1"/>
						</defs>
						<clipPath id="SVGID_10_">
							<use xlink:href="#SVGID_9_"  style="overflow:visible;"/>
						</clipPath>
						<g id="g752" class="st11">
							<g id="g760" transform="translate(114.8178,111.8356)">
								<path id="path762" class="st6" d="M-124.6-181.2c-8.3,0-16.2,7.6-16.2,15.8c-0.1,8.8,6.8,16.1,15.5,16.3
									c9.3,0.2,16.8-7,16.7-16C-108.8-173.4-116.5-181.2-124.6-181.2"/>
							</g>
							<g id="g764" transform="translate(131.9632,104.3275)">
								<path id="path766" class="st6" d="M-93.2-195c-9,0-15.7,6.7-15.6,15.8c0,9.2,6.6,15.9,15.5,15.9c8.8,0,15.8-7,15.9-15.8
									C-77.4-188-84.4-195-93.2-195"/>
							</g>
							<g id="g768" transform="translate(114.8354,98.184)">
								<path id="path770" class="st6" d="M-124.6-206.3c-8.7-0.1-15.9,7-16,15.7c-0.1,8.8,6.9,15.9,15.7,15.9
									c8.5,0,16.2-7.4,16.2-15.7C-108.8-198.8-116.1-206.2-124.6-206.3"/>
							</g>
							<g id="g772" transform="translate(131.7789,101.7483)">
								<path id="path774" class="st6" d="M-93.5-199.7c8.7,0.3,15.8-6.7,16-15.6c0.2-8.8-6.7-15.8-15.6-15.9
									c-8.5,0-15.2,6.5-15.4,15C-108.8-207.2-102.3-200-93.5-199.7"/>
							</g>
							<g id="g776" transform="translate(120.3547,90.2656)">
								<path id="path778" class="st6" d="M-114.5-220.8c0.2-8.5-7.1-16.2-15.6-16.2c-8.9,0-16,6.9-16,15.7c0,8.3,6.7,15.4,15,15.7
									C-122.3-205.2-114.7-212.2-114.5-220.8"/>
							</g>
							<g id="g780" transform="translate(154.6452,90.1263)">
								<path id="path782" class="st6" d="M-51.6-221c0-8.4-7.7-15.9-16-15.8c-8,0.1-15.3,7.3-15.5,15.3
									c-0.2,8.6,6.9,16.1,15.5,16.2C-59.1-205.2-51.5-212.6-51.6-221"/>
							</g>
							<g id="g784" transform="translate(132.0922,76.9295)">
								<path id="path786" class="st6" d="M-92.9-245.2c-9-0.2-15.9,6.5-15.9,15.7c0,8.5,6.5,15.4,14.9,15.9
									c8.3,0.4,16.1-7.2,16.2-15.8C-77.7-237.6-84.8-245-92.9-245.2"/>
							</g>
							<g id="g788" transform="translate(137.3405,68.6796)">
								<path id="path790" class="st6" d="M-83.3-260.4c0-8.6-6.6-15.3-15-15.5c-8.8-0.2-15.7,6.8-15.7,15.8
									c0.1,8.6,6.6,15.3,15,15.4C-90.2-244.5-83.3-251.5-83.3-260.4"/>
							</g>
							<g id="g792" transform="translate(97.5714,88.4731)">
								<path id="path794" class="st6" d="M-156.3-224.1c-9.2,0.1-15.9,6.7-15.8,15.7c0.1,8.8,7.1,15.3,16.3,15.1
									c9.1-0.2,15.5-7,15.2-16.2C-140.9-218.1-147.5-224.2-156.3-224.1"/>
							</g>
							<g id="g796" transform="translate(103.0616,80.2384)">
								<path id="path798" class="st6" d="M-146.2-239.2c0.1-8.7-6.2-15.3-14.9-15.5c-9.1-0.2-16.2,6.3-16.5,15.1
									c-0.2,8.5,7.1,15.5,16,15.4C-152.7-224.2-146.3-230.5-146.2-239.2"/>
							</g>
							<g id="g800" transform="translate(154.6171,76.3357)">
								<path id="path802" class="st6" d="M-51.6-246.3c-0.1-8.3-7.1-15.2-15.4-15.3c-8.8-0.1-16.1,7.1-16,15.7
									c0.1,8.2,7.2,15.3,15.4,15.4C-59-230.5-51.5-237.8-51.6-246.3"/>
							</g>
							<g id="g804" transform="translate(97.6446,34.212)">
								<path id="path806" class="st6" d="M-156.1-323.6h-0.6c-8.5,0-15.4,6.9-15.4,15.4v73.4c0,8.5,6.9,15.4,15.4,15.4h0.6
									c8.5,0,15.4-6.9,15.4-15.4v-73.4C-140.8-316.7-147.6-323.6-156.1-323.6"/>
							</g>
							<g id="g808" transform="translate(114.9205,28.9541)">
								<path id="path810" class="st6" d="M-124.4-333.3h-0.6c-8.5,0-15.4,6.9-15.4,15.4v118.5c0,8.5,6.9,15.4,15.4,15.4h0.6
									c8.5,0,15.4-6.9,15.4-15.4v-118.5C-109.1-326.4-116-333.3-124.4-333.3"/>
							</g>
							<g id="g812" transform="translate(132.0372,7.8958)">
								<path id="path814" class="st6" d="M-93-371.9h-0.6c-8.5,0-15.4,6.9-15.4,15.4V-238c0,8.5,6.9,15.4,15.4,15.4h0.6
									c8.5,0,15.4-6.9,15.4-15.4v-118.5C-77.7-365-84.6-371.9-93-371.9"/>
							</g>
							<g id="g816" transform="translate(149.1926,16.0966)">
								<path id="path818" class="st6" d="M-61.6-356.9h-0.6c-8.5,0-15.4,6.9-15.4,15.4V-223c0,8.5,6.9,15.4,15.4,15.4h0.6
									c8.5,0,15.4-6.9,15.4-15.4v-118.5C-46.2-350-53.1-356.9-61.6-356.9"/>
							</g>
						</g>
					</g>
				</g>
			</g>
		</g>
		<g id="g820">
			<g>
				<g>
					<g>
						<defs>
							<rect id="SVGID_11_" x="230.8" y="-155" width="116.3" height="47.6"/>
						</defs>
						<clipPath id="SVGID_12_">
							<use xlink:href="#SVGID_11_"  style="overflow:visible;"/>
						</clipPath>
						<g id="g822" class="st12">
							<g id="g828" transform="translate(174.4094,85.8107)">
								<path id="path830" class="st13" d="M-15.3-229c0-80.8-65.5-146.3-146.3-146.3S-307.8-309.7-307.8-229
									s65.5,146.3,146.3,146.3S-15.3-148.2-15.3-229z"/>
							</g>
						</g>
					</g>
				</g>
			</g>
		</g>
	</g>
</g>
<g>
	<path class="st14" d="M199.7,167.6c-7.1-9.6-15.3-18.2-23.2-27.1c-7.3-8.3-14.6-16.6-20.4-26.1c-0.5-0.8-0.5-1.2,0-2
		c1.3-2.3,2.4-4.7,3.6-7c0.3-0.5,0.8-1,1.3-1.4c2-1.6,4.4-2.8,6-4.6c3.1-3.7,5.2-8.1,6.6-12.8c0.9-2.9,0.1-5.5-2.1-7.6
		c-0.4-0.4-0.8-0.8-1.2-1.1c-1.1-0.6-1.2-1.6-1.2-2.7c0.2-2.2,0.3-4.4,0.2-6.6c-0.1-3.3-1.6-5.9-4.5-7.6c-0.8-0.5-1.6-1-2.5-1.3
		c-0.9-0.3-1.1-0.8-1.1-1.7c-0.1-1.8-0.2-3.6-0.5-5.3c-0.9-7.2-4.2-10.8-11.3-12.3c-0.3-0.1-0.6-0.2-0.9-0.3c0.3-2,0.7-3.8,1-5.7
		c0.4-2.3-0.3-4.3-2.2-5.7c-2.4-1.7-4.7-3.4-7.2-4.8c-4.9-2.9-9.5-2.3-13.8,1.3c-1.5,1.3-2.9,2.7-4.4,4.2c-1.9-1.4-3.9-2.9-5.9-4.3
		c-7.1-5-14.6-2-16.1,6.5c-0.1,0.7-0.2,1.4-0.4,2.1c-2.3-1.1-4.4-2.1-6.6-3c-3.5-1.4-7-2.9-10.7-4c-6-1.9-14.1,4.7-12.7,11.8
		c0.4,1.9,0.8,3.9,1.3,5.8c0.2,0.8,0.1,1.3-0.6,1.8c-1.1,0.9-2.1,1.9-3.1,3c-3.2,3.2-6.4,6.4-9.5,9.6c-1.2,1.3-1.7,2.8-1.5,4.5
		c0.2,1.5,0.4,2.9,0.4,4.4c0,0.6-0.3,1.3-0.7,1.8c-2.2,2.4-4.5,4.7-6.7,7.1c-1.1,1.3-1.2,2.8-0.5,4.4c1.2,2.9,2.3,5.7,3.3,8.6
		c0.2,0.5,0,1.2-0.2,1.7c-0.5,1-1.1,1.9-1.6,2.9c-0.8,1.5-0.7,3,0.5,4.3c0.6,0.7,1.1,1.5,1.7,2.2c2.7,3.3,4.1,7.3,6,11.1
		c0.2,0.3,0,1-0.3,1.4c-9.3,14.5-19.3,28.5-30.4,41.7c-7.1,8.5-14.5,16.6-21.8,25c-2.1,2.4-3.9,4.9-5.9,7.4c0.2,0.2,0.5,0.4,0.7,0.7
		c2.8-3.1,5.6-6.2,8.5-9.2c12.3-12.6,22.9-26.4,33.4-40.4c8.6-11.5,16.5-23.4,23.9-35.7c0.6-1,1.5-1.7,2.4-2.8
		c0.1,0.5,0.2,0.6,0.2,0.7c-0.2,0.5-0.5,1-0.7,1.4c-6.5,11.8-13.8,23-21.6,34C39,147,31.3,157.8,23.6,168.7
		c-0.3,0.4-0.5,0.8-0.8,1.2c0.5-0.1,0.7-0.4,0.9-0.7c4.6-6.1,9.3-12.2,13.8-18.3c12-16.3,23.9-32.7,33.6-50.6
		c0.4-0.7,1.1-1.1,1.7-1.6c0.2,0.1,0.3,0.2,0.5,0.4c-0.2,0.5-0.3,1-0.6,1.5c-2.3,4.1-4.6,8.2-7.1,12.2c-4.2,6.6-8.6,13.2-12.9,19.7
		c-0.3,0.5-0.6,1-0.9,1.5c0.5-0.2,0.8-0.5,1.1-0.9c7.4-9.8,14.3-19.9,20.5-30.5c1.1-1.8,2.3-3.5,4.3-4.7c-0.1,1.1-0.3,2.2-0.9,3.1
		c-12.5,20.8-26.1,40.8-41.2,59.9c-0.3,0.4-0.7,0.9-1,1.3c0.5-0.1,0.8-0.4,1.1-0.7c3.2-3.9,6.5-7.8,9.7-11.8
		c12.3-15.7,23.2-32.2,33.6-49.1c2.4-3.8,5.8-5.7,10.2-5.7c3.5-0.1,7-0.5,10.1-2.3c2.6-1.5,3.6-4.1,2.9-7c-0.1-0.4-0.2-0.8-0.4-1.4
		c0.8-0.1,1.4-0.2,2.1-0.2c2.1-0.3,4.2-0.5,6.2-0.9c2.8-0.5,4.5-2.3,5.3-4.9c0.8-2.5,0.5-4.8-0.9-7c0.6-0.2,1.2-0.4,1.6-0.6
		c1.7-1.1,3.5-2.1,4.8-3.5c3.1-3.4,2.4-8.5-1.5-11c-1.5-0.9-3-1.7-4.6-2.5c-1.5-0.7-3-1.4-4.6-2.1c2.8-3.8,2.1-7.6-0.1-11.4
		c0.6-0.2,1-0.3,1.4-0.4c2.2-0.5,2.8-0.4,3.9,1.7c0.9,1.7,1.7,3.5,2.5,5.2c0.2,0.5,0.4,1,0.8,1.7c0.6-2.8-0.3-5-1.2-7.3
		c1.4,0.8,2.9,1.6,4.4,2.5c-0.7-2.1-2.2-3.2-4-4.1c4.2-3.8,8.3-7.4,12.3-11c-0.1-0.1-0.2-0.2-0.3-0.4c-3.2,1-5.5,3.4-8.1,5.4
		c1.9-3.4,4.4-6,7.7-8c2.5-1.5,5.3-1.9,7.8-0.5c3.2,1.7,6.2,3.8,9.2,5.7c1.3,0.9,1.7,2.3,1.4,3.8c-0.5,2.7-1.1,5.4-1.6,8.1
		c-0.3,1.5-0.5,3.1-0.8,4.6c0.2,0.1,0.3,0.1,0.5,0.2c0.7-1.7,1.4-3.4,2.2-5.1c5.9,0.4,9.6,3.7,10.6,9.4c0.4,2.1,0.5,4.3,0.7,6.4
		c0.1,1.2,0,2.2-1,3c-0.4,0.3-0.6,0.8-0.9,1.2c0.9-0.1,1.6-0.4,2.3-0.7c0.4-0.1,0.8-0.3,1.1-0.3c3.6,0.8,6.5,4.1,6.6,7.9
		c0.1,2.4-0.1,4.7-0.3,7.1c0,0.6-0.4,1.2-0.7,1.6c-0.8,1-1.8,2-2.7,3c0.1,0.1,0.2,0.2,0.3,0.3c1.3-0.8,2.5-1.6,3.9-2.4
		c0.7,0.6,1.4,1.2,2.1,1.8c1.8,1.6,2.5,3.7,1.7,6c-2.5,7.3-5.7,14.1-13.5,17.4c-5.2,2.2-9.9,5.3-14.5,8.6c-2.5,1.8-4,4.4-6.3,6.3
		c-0.3,0.2-0.6,0.5-0.8,0.7c0,0,0.1,0,0.1,0.1c4.6-3,9.2-5.9,13.8-8.9c0.1,0.1,0.2,0.2,0.3,0.3c-0.5,1.9-1,3.9-2.8,5.1
		c-1.8,1.2-3.6,2.5-5.5,3.6c-6.4,3.7-12.8,7.3-19.3,10.9c-0.1,0-0.2,0-0.5,0c3.4-3.8,6.7-7.5,10-11.2c-0.1-0.1-0.3-0.2-0.4-0.3
		c-23.9,21.6-42.1,47.5-56.1,76.5c2.8-3.7,5.6-7.5,8-11.5c5-8.1,9.8-16.5,14.9-24.5c2.1-3.3,4.9-6.3,7.5-9.3
		c2.1-2.4,4.1-2.4,6.4-0.2c1.3,1.2,2.5,2.6,3.6,4c8.1,10.1,16.1,20.2,24.4,30.2c3.8,4.5,8.1,8.6,12.2,12.8c0.4,0.4,1,0.7,1.5,1
		c0-0.4-0.2-0.6-0.3-0.8c-13.7-16.6-27.5-33.2-41.2-49.8c-1.3-1.5-1.3-1.5,0.1-3.1c2.8,3.4,5.6,6.7,8.4,10.1
		c0.1-0.1,0.2-0.1,0.3-0.2c-0.2-0.3-0.4-0.7-0.6-1c-2.1-3.1-4.3-6.3-6.5-9.4c-0.6-0.8-0.5-1.3,0.1-2.1c3.4-4.2,7.8-6.9,12.4-9.4
		c-1.5,1.6-2.9,3.2-4.4,4.8c0.1,0.1,0.2,0.2,0.3,0.3c3.5-2.3,7-4.6,10.4-6.9c9.3,12.3,18.4,24.4,27.5,36.4c0.1-0.1,0.2-0.2,0.3-0.2
		c-7.6-13-17.8-24.1-26.1-36.8c0.7-0.3,1.2-0.6,1.7-0.9c7.9,10.5,15.7,20.8,23.5,31.1c0.1-0.1,0.3-0.2,0.4-0.3
		c-6.9-10.9-15.6-20.6-22.3-31.3c4-3.5,8-7,11.9-10.4c1.5,1.6,3,3.3,4.5,4.9c0.1-0.1,0.2-0.2,0.3-0.2c-1.3-2.1-2.5-4.1-3.8-6.2
		c0.1-0.1,0.2-0.1,0.3-0.2c3,3.6,5.9,7.1,8.9,10.7c0.1-0.1,0.2-0.2,0.4-0.3c-2.7-3.9-5.4-7.8-8.1-11.8c0.3-0.3,0.5-0.6,0.8-0.9
		c7.1,11.6,15.6,21.8,24.4,31.8c8.7,10,17.6,19.8,26.4,29.7c0.1-0.1,0.2-0.1,0.3-0.2C203.2,172.6,201.5,170.1,199.7,167.6z M99,90.4
		c-1.4,1-3.1,1.6-4.8,2c-4.1,1-8.4,0.6-12.5,0.1c-0.5-0.1-1.1-0.8-1.4-1.4c-0.6-0.9-1-1.9-1.6-3.2C78,90,78.6,91.6,79.5,93
		c-2,1.6-4.3,2.3-6.7,2.9c-0.7,0.2-1.4,0.2-2.1,0.4c-2.4,0.8-4.2-0.3-6.1-1.6c-1.2-0.8-2.5-1.4-3.7-2.1c-0.1,0.2-0.2,0.3-0.3,0.5
		c1.5,1.3,2.9,2.6,4.4,3.8c0.6,0.5,0.8,0.9,0.6,1.5c-0.7,2.5-2.2,4.6-4.2,6.3c-0.4,0.3-1.4,0.2-2.1,0c-0.5-0.2-1-0.8-1.4-1.2
		c-1.7-1.8-3.4-3.5-5.1-5.3c-2-2-2.1-2.1-0.6-4.4c1.8-2.8,3.6-5.5,5.7-8.1c0.8-1,2-1.8,3.3-2.2c4.3-1.5,8.6-2.8,12.9-4
		c1.3-0.4,2.8-0.4,4.2-0.3c2.7,0.3,5.3,0.8,8.2,1.2c-0.1,1.5-0.1,2.9-0.3,4.3c-0.2,2.3,0.1,2.7,2.3,3c2.3,0.2,4.5,0.5,6.8,0.5
		c2.8,0,3.7-1,3.9-3.8c0-0.2,0-0.4,0.1-0.7C101.3,85.3,101.2,88.9,99,90.4z M87.4,85.5c0.1-1.6,0.3-3.1,0.5-5
		c3.4,0.8,6.6,1.5,9.9,2.2c0.9,0.2,1.2,0.7,1,1.6c-0.3,2.2-1.2,3.1-3.4,3c-2.4-0.2-4.8-0.5-7.2-0.9C87.9,86.5,87.4,85.9,87.4,85.5z
		 M111.8,79.6c-5.4,1.3-10.7,1.3-16.1,0.2c-6.3-1.3-12.7-2.4-19-3.5c-1.5-0.3-2.3-1.3-2.9-2.5c-0.5-1-0.9-2-1.3-3
		c-0.2,0.1-0.3,0.1-0.5,0.2c0.7,1.8,1.3,3.7,2.1,5.6c-3.4,0.8-7.1,1.7-10.9,2.6c-0.5-1.5-1.1-3-1.6-4.5c-0.1,0-0.2,0-0.3,0.1
		c0.2,1.3,0.3,2.6,0.6,3.8c0.1,0.7,0,1-0.6,1.4c-1.1,0.6-2.1,1.5-3.3,2.1c-0.4,0.2-1.3,0.3-1.6,0c-1.4-0.9-2.6-2-3.9-3.1
		c-0.1,0.1-0.2,0.1-0.3,0.2c1.1,1.4,2.2,2.8,3.3,4.1c-0.6,1.5-1.3,3.3-2.1,5.1c-0.2-0.4-0.4-0.6-0.5-0.9c-0.9-2.4-1.8-4.8-2.8-7.1
		c-0.5-1.1-0.4-2.1,0.3-3c4.6-6,10.4-10.6,17.4-13.5c0.7-0.3,1.6-0.3,2.4-0.3c8.5,0.6,17,1.1,25.6,1.7c1.6,0.1,2.7,1.1,3.1,2.9
		c0.2,1,0.3,1.9,0.5,2.9c0.1,0,0.3,0,0.4,0c-0.1-1.7-0.2-3.4-0.4-5.2c1,0.4,2.2,0.7,3.3,1.2c0.3,0.1,0.5,0.7,0.5,1.1
		c-0.3,2-0.6,4.1-1.1,6c-0.6,2.5-0.3,3.1,2.3,3.4c2.9,0.3,5.8,0.5,8.7,0.7C113.2,79.2,112.5,79.5,111.8,79.6z M113.9,77.1
		c-0.1,0.3-0.7,0.6-0.9,0.6c-3-0.4-6-0.9-9-1.3c-0.9-0.1-1-0.7-0.8-1.4c0.6-2.3,1.2-4.7,1.9-7.4c2.3,1.1,4.8,2.1,7.1,3.5
		C114.1,72.2,114.8,75,113.9,77.1z M115.6,55.4c1,0.4,2,1,2.9,1.6c3,1.9,3.6,5.5,1.4,8.4c-1.7,2.2-4,3.3-6.5,4c-0.3,0.1-0.7,0-1-0.2
		c-3.6-1.8-7.2-3.7-10.8-5.5c0.6-1.2,1.2-2.4,1.7-3.5c-0.1-0.1-0.2-0.3-0.4-0.4c-1.4,3.6-4.1,3.5-7.1,3.2
		c-7.1-0.8-14.1-1.4-21.2-1.9c-3-0.2-5.2-1.7-7.1-3.8c-0.3-0.4-0.6-0.7-1-1.1c0.6,1.9,2.1,3.2,3.7,4.5c-3,0.9-5.8,1.9-8.7,2.7
		c-1.1,0.3-2.3,0.3-3-1c-0.5-1-0.4-1.8,0.3-2.5c3.2-3.3,6.5-6.6,9.7-9.8c1.3-1.3,2.8-2.6,4.1-3.9c1.2-1.2,2.6-1.5,4.2-1.5
		c2.9,0,4.4,1.3,5.1,4c0.2,0.7,0.4,1.3,0.6,2c0.1,0,0.3,0,0.4,0c-0.3-1.7-0.7-3.4-1-5.3c3.4,0.4,6.9,0.8,10.3,1.4
		c2.5,0.5,5,1.1,7.3,2C105,50.8,110.3,53.1,115.6,55.4z M100.8,46.5c0.3-2.4,0.6-4.7,0.9-7.4c1.9,0.9,3.8,1.8,5.6,2.9
		c1.1,0.6,1.3,1.8,1.3,2.9c-0.1,1.3-0.3,2.6-0.4,4.3C105.5,48.2,103.2,47.4,100.8,46.5z M110.4,46.9c-0.1,0.6-0.3,1.2-0.6,1.8
		c-0.2,0.3-0.7,0.5-1.3,0.9c0.3-1.9,0.6-3.3,0.8-4.8c0.2-1.6-0.4-3-1.8-3.7c-1.9-1.1-3.9-2.1-5.9-2.9c-1.3-0.6-1.7-0.2-1.5,1.2
		c0.4,2.2,0.1,4.3-0.8,6.5c-7.3-1.6-14.4-3.1-21.6-4.6c-2.2-0.5-4.2-1.4-5.8-3.1c-0.7-0.8-0.9-1.6-0.7-2.6c0.7-4.6,6.1-8.3,10.7-7.3
		c1.8,0.4,3.6,1,5.2,1.7c6.2,2.8,12.5,5.6,18.6,8.6C109.3,40.3,110.9,43.4,110.4,46.9z M119.8,31.6c-0.6,1.9-0.8,4-2.8,5.1
		c-0.5,0.2-1.1,0.4-1.6,0.4c-2.2-0.4-4.3,0-6.4,0.8c-0.4,0.2-1,0.1-1.4-0.1c-1.2-0.6-2.3-1.3-3.4-1.9c-1.9-1-1.9-1-2.1-3.1
		c0.2-1.5,0.5-3.1,0.7-4.6c0.2-1.5,1.2-2.4,2.6-3c3.7-1.5,7-0.8,10,1.6c1.4,1.1,2.6,2.5,3.9,3.9C119.7,30.8,119.9,31.3,119.8,31.6z
		 M154.5,111.7c1.3-2.2,2.6-4.4,3.9-6.6c0.2,0.1,0.3,0.2,0.5,0.3c-1.3,2.2-2.7,4.3-4,6.5C154.8,111.9,154.6,111.8,154.5,111.7z"/>
	<path class="st14" d="M120.6,100.8c11.7-10,22.7-20.6,33-32C142,78.8,130.9,89.4,120.6,100.8z"/>
	<path class="st14" d="M141.1,54.5c-7.7,9.3-14.7,19.1-20.8,29.6C128,74.7,135,64.9,141.1,54.5z"/>
	<path class="st14" d="M162,85.9c-7.7,3.9-14.8,8.7-21.4,14.3C148.2,96.2,155.4,91.5,162,85.9z"/>
	<path class="st14" d="M165.2,96.9c1.6-3.2,3.1-6.4,4.6-9.7c0.2-0.5,0.2-1.1,0.2-1.7c0-1.8-0.9-2.9-2.7-3.5c1.8,3,2,3.3,1.2,5.1
		c-2.1,4.1-2.9,8.9-7,12.1C163.2,98.8,164.6,98.2,165.2,96.9z"/>
	<path class="st14" d="M149.5,44.5c4.7,1.7,6.9,5.2,8,9.9C158.9,49.9,154.8,43.6,149.5,44.5z"/>
	<path class="st14" d="M135.6,27.1c3.9,1.6,7.2,3.7,10,6.6C144.6,29.6,139.2,26,135.6,27.1z"/>
	<path class="st14" d="M162,63.5c1.1,3.2,2.4,6.5,3.5,9.7C166.8,69.7,165.1,65,162,63.5z"/>
	<path class="st14" d="M107.7,64.3c2.4,1.3,5,2,7.1,2.4c3-0.2,4.2-1.4,5-4c0.7-2.3,0.4-3.7-1.7-4.9c-2.2-1.3-4.5-2.2-6.9-3.1
		c-1.4-0.5-2.1,0-2.4,1.6c-0.5,2.3-1,4.6-1.4,6.9C107.3,63.5,107.5,64.1,107.7,64.3z M110.2,55.7c3,0.8,5.9,1.7,8.2,3.7
		c0.4,0.4,0.7,1.2,0.7,1.8c-0.1,1-0.3,2-0.8,2.9c-1.1,2.4-2.1,2.8-4.5,1.8c-1.7-0.6-3.3-1.3-5-2c-0.2-0.1-0.3-0.2-0.5-0.3
		C109,61,109.6,58.4,110.2,55.7z"/>
</g>
</svg>
